<mxfile host="app.diagrams.net" agent="Mozilla/5.0 (Windows NT 10.0; Win64; x64) AppleWebKit/537.36 (KHTML, like Gecko) Chrome/131.0.0.0 Safari/537.36" version="25.0.1">
  <diagram name="Σελίδα-1" id="4o6d808UBmGr08mL4I_R">
    <mxGraphModel dx="2739" dy="2164" grid="1" gridSize="10" guides="1" tooltips="1" connect="1" arrows="1" fold="1" page="1" pageScale="1" pageWidth="827" pageHeight="1169" math="0" shadow="0">
      <root>
        <mxCell id="0" />
        <mxCell id="1" parent="0" />
        <mxCell id="r4pAyAyqcV2ajWgkFm0Q-6" value="" style="whiteSpace=wrap;html=1;aspect=fixed;dashed=1;" vertex="1" parent="1">
          <mxGeometry x="180" y="80" width="510" height="510" as="geometry" />
        </mxCell>
        <mxCell id="r4pAyAyqcV2ajWgkFm0Q-12" value="aws vpc" style="text;html=1;align=center;verticalAlign=middle;resizable=0;points=[];autosize=1;strokeColor=none;fillColor=none;fontSize=17;" vertex="1" parent="1">
          <mxGeometry x="395" y="600" width="80" height="30" as="geometry" />
        </mxCell>
        <mxCell id="r4pAyAyqcV2ajWgkFm0Q-14" value="" style="rounded=0;whiteSpace=wrap;html=1;glass=0;shadow=0;dashed=1;dashPattern=1 2;" vertex="1" parent="1">
          <mxGeometry x="210" y="100" width="220" height="440" as="geometry" />
        </mxCell>
        <mxCell id="r4pAyAyqcV2ajWgkFm0Q-15" value="" style="rounded=0;whiteSpace=wrap;html=1;dashed=1;dashPattern=1 2;" vertex="1" parent="1">
          <mxGeometry x="450" y="100" width="210" height="440" as="geometry" />
        </mxCell>
        <mxCell id="r4pAyAyqcV2ajWgkFm0Q-16" value="eu-west-1" style="text;html=1;align=center;verticalAlign=middle;resizable=0;points=[];autosize=1;strokeColor=none;fillColor=none;fontSize=13;" vertex="1" parent="1">
          <mxGeometry x="280" y="540" width="80" height="30" as="geometry" />
        </mxCell>
        <mxCell id="r4pAyAyqcV2ajWgkFm0Q-17" value="eu-west-2" style="text;html=1;align=center;verticalAlign=middle;resizable=0;points=[];autosize=1;strokeColor=none;fillColor=none;fontSize=13;" vertex="1" parent="1">
          <mxGeometry x="515" y="540" width="80" height="30" as="geometry" />
        </mxCell>
        <mxCell id="r4pAyAyqcV2ajWgkFm0Q-18" value="" style="rounded=0;whiteSpace=wrap;html=1;fillColor=#d5e8d4;strokeColor=#82b366;" vertex="1" parent="1">
          <mxGeometry x="230" y="120" width="180" height="160" as="geometry" />
        </mxCell>
        <mxCell id="r4pAyAyqcV2ajWgkFm0Q-19" value="" style="rounded=0;whiteSpace=wrap;html=1;fillColor=#dae8fc;strokeColor=#6c8ebf;" vertex="1" parent="1">
          <mxGeometry x="230" y="320" width="180" height="180" as="geometry" />
        </mxCell>
        <mxCell id="r4pAyAyqcV2ajWgkFm0Q-20" value="" style="rounded=0;whiteSpace=wrap;html=1;fillColor=#d5e8d4;strokeColor=#82b366;" vertex="1" parent="1">
          <mxGeometry x="465" y="120" width="180" height="160" as="geometry" />
        </mxCell>
        <mxCell id="r4pAyAyqcV2ajWgkFm0Q-22" value="pubic-subnet-1" style="text;html=1;align=center;verticalAlign=middle;resizable=0;points=[];autosize=1;strokeColor=none;fillColor=none;fontSize=13;" vertex="1" parent="1">
          <mxGeometry x="265" y="280" width="110" height="30" as="geometry" />
        </mxCell>
        <mxCell id="r4pAyAyqcV2ajWgkFm0Q-24" value="pubic-subnet-2" style="text;html=1;align=center;verticalAlign=middle;resizable=0;points=[];autosize=1;strokeColor=none;fillColor=none;fontSize=13;" vertex="1" parent="1">
          <mxGeometry x="500" y="280" width="110" height="30" as="geometry" />
        </mxCell>
        <mxCell id="r4pAyAyqcV2ajWgkFm0Q-25" value="private-subnet-1" style="text;html=1;align=center;verticalAlign=middle;resizable=0;points=[];autosize=1;strokeColor=none;fillColor=none;fontSize=13;" vertex="1" parent="1">
          <mxGeometry x="260" y="500" width="120" height="30" as="geometry" />
        </mxCell>
        <mxCell id="r4pAyAyqcV2ajWgkFm0Q-26" value="private-subnet-2" style="text;html=1;align=center;verticalAlign=middle;resizable=0;points=[];autosize=1;strokeColor=none;fillColor=none;fontSize=13;" vertex="1" parent="1">
          <mxGeometry x="495" y="500" width="120" height="30" as="geometry" />
        </mxCell>
        <mxCell id="r4pAyAyqcV2ajWgkFm0Q-27" value="nat-gateway-1" style="outlineConnect=0;dashed=0;verticalLabelPosition=bottom;verticalAlign=top;align=center;html=1;shape=mxgraph.aws3.vpc_nat_gateway;fillColor=#F58534;gradientColor=none;" vertex="1" parent="1">
          <mxGeometry x="350" y="140" width="30" height="30" as="geometry" />
        </mxCell>
        <mxCell id="r4pAyAyqcV2ajWgkFm0Q-28" value="nat-gateway-2" style="outlineConnect=0;dashed=0;verticalLabelPosition=bottom;verticalAlign=top;align=center;html=1;shape=mxgraph.aws3.vpc_nat_gateway;fillColor=#F58534;gradientColor=none;" vertex="1" parent="1">
          <mxGeometry x="585" y="140" width="30" height="30" as="geometry" />
        </mxCell>
        <mxCell id="r4pAyAyqcV2ajWgkFm0Q-29" value="" style="outlineConnect=0;dashed=0;verticalLabelPosition=bottom;verticalAlign=top;align=center;html=1;shape=mxgraph.aws3.internet_gateway;fillColor=#F58534;gradientColor=none;" vertex="1" parent="1">
          <mxGeometry x="170" y="60" width="50" height="50" as="geometry" />
        </mxCell>
        <mxCell id="r4pAyAyqcV2ajWgkFm0Q-33" value="&lt;div style=&quot;&quot;&gt;&lt;br&gt;&lt;/div&gt;" style="points=[];aspect=fixed;html=1;align=left;shadow=0;dashed=0;fillColor=#FF6A00;strokeColor=none;shape=mxgraph.alibaba_cloud.alb_application_load_balancer_01;" vertex="1" parent="1">
          <mxGeometry x="256.02" y="140" width="35.37" height="30" as="geometry" />
        </mxCell>
        <mxCell id="r4pAyAyqcV2ajWgkFm0Q-35" value="load-balancer" style="text;html=1;align=center;verticalAlign=middle;resizable=0;points=[];autosize=1;strokeColor=none;fillColor=none;fontSize=13;" vertex="1" parent="1">
          <mxGeometry x="223.7" y="170" width="100" height="30" as="geometry" />
        </mxCell>
        <mxCell id="r4pAyAyqcV2ajWgkFm0Q-56" value="" style="rounded=0;whiteSpace=wrap;html=1;fillColor=#ffe6cc;strokeColor=#d79b00;" vertex="1" parent="1">
          <mxGeometry x="240" y="330" width="130" height="60" as="geometry" />
        </mxCell>
        <mxCell id="r4pAyAyqcV2ajWgkFm0Q-36" value="" style="points=[];aspect=fixed;html=1;align=center;shadow=0;dashed=0;fillColor=#FF6A00;strokeColor=none;shape=mxgraph.alibaba_cloud.eci_elastic_container_instance;" vertex="1" parent="1">
          <mxGeometry x="250" y="340" width="28.59" height="20" as="geometry" />
        </mxCell>
        <mxCell id="r4pAyAyqcV2ajWgkFm0Q-47" value="" style="points=[];aspect=fixed;html=1;align=center;shadow=0;dashed=0;fillColor=#FF6A00;strokeColor=none;shape=mxgraph.alibaba_cloud.eci_elastic_container_instance;" vertex="1" parent="1">
          <mxGeometry x="285.7" y="340" width="28.59" height="20" as="geometry" />
        </mxCell>
        <mxCell id="r4pAyAyqcV2ajWgkFm0Q-48" value="" style="points=[];aspect=fixed;html=1;align=center;shadow=0;dashed=0;fillColor=#FF6A00;strokeColor=none;shape=mxgraph.alibaba_cloud.eci_elastic_container_instance;" vertex="1" parent="1">
          <mxGeometry x="321.40999999999997" y="340" width="28.59" height="20" as="geometry" />
        </mxCell>
        <mxCell id="r4pAyAyqcV2ajWgkFm0Q-52" value="task-runner-service" style="text;html=1;align=center;verticalAlign=middle;resizable=0;points=[];autosize=1;strokeColor=none;fillColor=none;fontSize=13;" vertex="1" parent="1">
          <mxGeometry x="240" y="360" width="130" height="30" as="geometry" />
        </mxCell>
        <mxCell id="r4pAyAyqcV2ajWgkFm0Q-69" value="" style="rounded=0;whiteSpace=wrap;html=1;fillColor=#dae8fc;strokeColor=#6c8ebf;" vertex="1" parent="1">
          <mxGeometry x="460" y="320" width="180" height="180" as="geometry" />
        </mxCell>
        <mxCell id="r4pAyAyqcV2ajWgkFm0Q-75" style="edgeStyle=orthogonalEdgeStyle;rounded=0;orthogonalLoop=1;jettySize=auto;html=1;strokeColor=default;curved=0;startArrow=none;startFill=0;" edge="1" parent="1" source="r4pAyAyqcV2ajWgkFm0Q-70">
          <mxGeometry relative="1" as="geometry">
            <mxPoint x="740" y="394.9999999999998" as="targetPoint" />
            <Array as="points">
              <mxPoint x="710" y="360" />
              <mxPoint x="710" y="395" />
            </Array>
          </mxGeometry>
        </mxCell>
        <mxCell id="r4pAyAyqcV2ajWgkFm0Q-76" value="user push jobs" style="edgeLabel;html=1;align=center;verticalAlign=middle;resizable=0;points=[];" vertex="1" connectable="0" parent="r4pAyAyqcV2ajWgkFm0Q-75">
          <mxGeometry x="0.1145" relative="1" as="geometry">
            <mxPoint as="offset" />
          </mxGeometry>
        </mxCell>
        <mxCell id="r4pAyAyqcV2ajWgkFm0Q-70" value="" style="rounded=0;whiteSpace=wrap;html=1;fillColor=#ffe6cc;strokeColor=#d79b00;" vertex="1" parent="1">
          <mxGeometry x="470" y="330" width="130" height="60" as="geometry" />
        </mxCell>
        <mxCell id="r4pAyAyqcV2ajWgkFm0Q-71" value="" style="points=[];aspect=fixed;html=1;align=center;shadow=0;dashed=0;fillColor=#FF6A00;strokeColor=none;shape=mxgraph.alibaba_cloud.eci_elastic_container_instance;" vertex="1" parent="1">
          <mxGeometry x="480" y="340" width="28.59" height="20" as="geometry" />
        </mxCell>
        <mxCell id="r4pAyAyqcV2ajWgkFm0Q-72" value="" style="points=[];aspect=fixed;html=1;align=center;shadow=0;dashed=0;fillColor=#FF6A00;strokeColor=none;shape=mxgraph.alibaba_cloud.eci_elastic_container_instance;" vertex="1" parent="1">
          <mxGeometry x="515.7" y="340" width="28.59" height="20" as="geometry" />
        </mxCell>
        <mxCell id="r4pAyAyqcV2ajWgkFm0Q-73" value="" style="points=[];aspect=fixed;html=1;align=center;shadow=0;dashed=0;fillColor=#FF6A00;strokeColor=none;shape=mxgraph.alibaba_cloud.eci_elastic_container_instance;" vertex="1" parent="1">
          <mxGeometry x="551.41" y="340" width="28.59" height="20" as="geometry" />
        </mxCell>
        <mxCell id="r4pAyAyqcV2ajWgkFm0Q-74" value="api-server-service" style="text;html=1;align=center;verticalAlign=middle;resizable=0;points=[];autosize=1;strokeColor=none;fillColor=none;fontSize=13;" vertex="1" parent="1">
          <mxGeometry x="470" y="360" width="130" height="30" as="geometry" />
        </mxCell>
        <mxCell id="r4pAyAyqcV2ajWgkFm0Q-92" style="edgeStyle=orthogonalEdgeStyle;rounded=0;orthogonalLoop=1;jettySize=auto;html=1;exitX=1;exitY=0.5;exitDx=0;exitDy=0;startArrow=classic;startFill=1;endArrow=none;endFill=0;" edge="1" parent="1" source="r4pAyAyqcV2ajWgkFm0Q-83">
          <mxGeometry relative="1" as="geometry">
            <mxPoint x="740" y="394.9999999999998" as="targetPoint" />
            <Array as="points">
              <mxPoint x="710" y="430" />
              <mxPoint x="710" y="395" />
            </Array>
          </mxGeometry>
        </mxCell>
        <mxCell id="r4pAyAyqcV2ajWgkFm0Q-95" value="worker consumes jobs" style="edgeLabel;html=1;align=center;verticalAlign=middle;resizable=0;points=[];" vertex="1" connectable="0" parent="r4pAyAyqcV2ajWgkFm0Q-92">
          <mxGeometry x="-0.0098" y="1" relative="1" as="geometry">
            <mxPoint as="offset" />
          </mxGeometry>
        </mxCell>
        <mxCell id="r4pAyAyqcV2ajWgkFm0Q-83" value="" style="rounded=0;whiteSpace=wrap;html=1;fillColor=#ffe6cc;strokeColor=#d79b00;" vertex="1" parent="1">
          <mxGeometry x="470" y="400" width="130" height="60" as="geometry" />
        </mxCell>
        <mxCell id="r4pAyAyqcV2ajWgkFm0Q-84" value="" style="points=[];aspect=fixed;html=1;align=center;shadow=0;dashed=0;fillColor=#FF6A00;strokeColor=none;shape=mxgraph.alibaba_cloud.eci_elastic_container_instance;" vertex="1" parent="1">
          <mxGeometry x="480" y="410" width="28.59" height="20" as="geometry" />
        </mxCell>
        <mxCell id="r4pAyAyqcV2ajWgkFm0Q-85" value="" style="points=[];aspect=fixed;html=1;align=center;shadow=0;dashed=0;fillColor=#FF6A00;strokeColor=none;shape=mxgraph.alibaba_cloud.eci_elastic_container_instance;" vertex="1" parent="1">
          <mxGeometry x="515.7" y="410" width="28.59" height="20" as="geometry" />
        </mxCell>
        <mxCell id="r4pAyAyqcV2ajWgkFm0Q-86" value="" style="points=[];aspect=fixed;html=1;align=center;shadow=0;dashed=0;fillColor=#FF6A00;strokeColor=none;shape=mxgraph.alibaba_cloud.eci_elastic_container_instance;" vertex="1" parent="1">
          <mxGeometry x="551.41" y="410" width="28.59" height="20" as="geometry" />
        </mxCell>
        <mxCell id="r4pAyAyqcV2ajWgkFm0Q-87" value="task-runner-service" style="text;html=1;align=center;verticalAlign=middle;resizable=0;points=[];autosize=1;strokeColor=none;fillColor=none;fontSize=13;" vertex="1" parent="1">
          <mxGeometry x="470" y="430" width="130" height="30" as="geometry" />
        </mxCell>
        <mxCell id="r4pAyAyqcV2ajWgkFm0Q-101" style="edgeStyle=orthogonalEdgeStyle;rounded=0;orthogonalLoop=1;jettySize=auto;html=1;" edge="1" parent="1" source="r4pAyAyqcV2ajWgkFm0Q-97">
          <mxGeometry relative="1" as="geometry">
            <mxPoint x="790" y="610" as="targetPoint" />
          </mxGeometry>
        </mxCell>
        <mxCell id="r4pAyAyqcV2ajWgkFm0Q-97" value="auto-scalling" style="sketch=0;outlineConnect=0;fontColor=#232F3E;gradientColor=none;fillColor=#ED7100;strokeColor=default;dashed=0;verticalLabelPosition=bottom;verticalAlign=top;align=center;html=1;fontSize=12;fontStyle=0;aspect=fixed;pointerEvents=1;shape=mxgraph.aws4.auto_scaling2;fillStyle=auto;" vertex="1" parent="1">
          <mxGeometry x="750" y="450" width="80" height="80" as="geometry" />
        </mxCell>
        <mxCell id="r4pAyAyqcV2ajWgkFm0Q-98" value="SQS Tasks" style="sketch=0;outlineConnect=0;strokeColor=#FFF9F7;fillColor=#ED7100;dashed=0;verticalLabelPosition=middle;verticalAlign=bottom;align=center;html=1;whiteSpace=wrap;fontSize=10;fontStyle=1;spacing=3;shape=mxgraph.aws4.productIcon;prIcon=mxgraph.aws4.sqs;gradientColor=none;" vertex="1" parent="1">
          <mxGeometry x="750" y="340" width="80" height="100" as="geometry" />
        </mxCell>
        <mxCell id="r4pAyAyqcV2ajWgkFm0Q-100" style="edgeStyle=orthogonalEdgeStyle;rounded=0;orthogonalLoop=1;jettySize=auto;html=1;entryX=1.004;entryY=0.824;entryDx=0;entryDy=0;entryPerimeter=0;" edge="1" parent="1" source="r4pAyAyqcV2ajWgkFm0Q-97" target="r4pAyAyqcV2ajWgkFm0Q-87">
          <mxGeometry relative="1" as="geometry">
            <Array as="points">
              <mxPoint x="730" y="490" />
              <mxPoint x="730" y="455" />
            </Array>
          </mxGeometry>
        </mxCell>
        <mxCell id="r4pAyAyqcV2ajWgkFm0Q-102" value="SNS Slack" style="sketch=0;outlineConnect=0;fontColor=#232F3E;gradientColor=none;strokeColor=#ffffff;fillColor=#ED7100;dashed=0;verticalLabelPosition=middle;verticalAlign=bottom;align=center;html=1;whiteSpace=wrap;fontSize=10;fontStyle=1;spacing=3;shape=mxgraph.aws4.productIcon;prIcon=mxgraph.aws4.sns;" vertex="1" parent="1">
          <mxGeometry x="770" y="610" width="40" height="70" as="geometry" />
        </mxCell>
        <mxCell id="r4pAyAyqcV2ajWgkFm0Q-110" style="edgeStyle=orthogonalEdgeStyle;rounded=0;orthogonalLoop=1;jettySize=auto;html=1;entryX=0;entryY=0.5;entryDx=0;entryDy=0;" edge="1" parent="1" source="r4pAyAyqcV2ajWgkFm0Q-103" target="r4pAyAyqcV2ajWgkFm0Q-105">
          <mxGeometry relative="1" as="geometry" />
        </mxCell>
        <mxCell id="r4pAyAyqcV2ajWgkFm0Q-103" value="github cli user" style="dashed=0;outlineConnect=0;html=1;align=center;labelPosition=center;verticalLabelPosition=bottom;verticalAlign=top;shape=mxgraph.weblogos.github" vertex="1" parent="1">
          <mxGeometry x="-470" y="235" width="75" height="75" as="geometry" />
        </mxCell>
        <mxCell id="r4pAyAyqcV2ajWgkFm0Q-113" style="edgeStyle=orthogonalEdgeStyle;rounded=0;orthogonalLoop=1;jettySize=auto;html=1;" edge="1" parent="1" source="r4pAyAyqcV2ajWgkFm0Q-105" target="r4pAyAyqcV2ajWgkFm0Q-112">
          <mxGeometry relative="1" as="geometry" />
        </mxCell>
        <mxCell id="r4pAyAyqcV2ajWgkFm0Q-158" style="edgeStyle=orthogonalEdgeStyle;rounded=0;orthogonalLoop=1;jettySize=auto;html=1;" edge="1" parent="1" source="r4pAyAyqcV2ajWgkFm0Q-105" target="r4pAyAyqcV2ajWgkFm0Q-153">
          <mxGeometry relative="1" as="geometry">
            <mxPoint x="-304.43499999999995" y="60" as="targetPoint" />
            <Array as="points">
              <mxPoint x="-304" y="80" />
              <mxPoint x="-304" y="80" />
            </Array>
          </mxGeometry>
        </mxCell>
        <mxCell id="r4pAyAyqcV2ajWgkFm0Q-105" value="terraform sets AWS+Github&#xa;environments" style="shape=image;verticalLabelPosition=bottom;labelBackgroundColor=default;verticalAlign=top;aspect=fixed;imageAspect=0;image=data:image/png,iVBORw0KGgoAAAANSUhEUgAAAZkAAAGQCAIAAADzyIpRAAAgAElEQVR4Aey9919TZx//37/l++Pn87nvu1XZK4BWrVpba1vt3sP27q2MTPZyi1vU1i3uuiXJySQJG8mEhJXBSsgO2Yvv4zoHEK0ggQQSuHzwaENyzpVzXue6nryv63qPt0QiGfYjFne+8iMSyYRCmVQq7+1VDg9rzWaLy+Xy+/3j8B9UACoAFYiYAn6/3+Vymc2W4WFtb69SKpULhQBTrwBKLO6cjq+3XnvE1DlSqVyh6BsaGrFabW63x+8PBIPBiN0CbBgqABWACowHg0G/P+B2e6xW29DQiELRJ5XKp6D0zxeo1SV9658fiMWdGAVlMkVfn2poaMRksrjd7kAgADkGOxpUACqwCAoEg+OBQMDtdptMlqGhkb4+lUymwGaKMyBrBpaJRDKJpKunp39kRGe12lwut9/vhxbZIjxC+BVQAagApgBqnfldLrfVahsZ0fX09EskXbPMI1+yy7DJp0TS1dXV3durHBrSWixwagm7FlQAKrA0CkxNNi0W29AQWDvr6urGiPZPqL3EMqFQJhRKZTKFWj1gMJjsdofH44VrZEvzGOG3QgWgAuMTa2cej9dudxgMJrV6QCZTCIVSofDVrYCXWCYWd0qlXb29Sr3e6PF4oZJQAagAVCB6FPB4vHq9Ed3Z7Prnqhlg2dSKWldXj1Kp0en0drsDro5FzyOEVwIVgAqMozaa3e7Q6fRKpaarq2dqlxLj2hTLpFJpl1KpMZnM6Ep/AGoHFYAKQAWiTQG/P+ByuU0ms1KpkUq7hELp1MIZYJlE0iWTKXp7lTqd3uVyz/Hqg8Fxvy/g9QR8Xuh0NkfN4GFQAahAGBRwudw6nb63VymTKSSSifkm8JXt6upWqwf0eqPd7vD752qR+X1Bh81rNbjsVk8gAB1ow/CEYBNQAajAXBTw+wN2u0OvN6rVA11d3ZgDxlsSCVjsNxhMHo83pDUyj9tvGHJo5JbhPpvN5AbWWSAIfiDW5vI04DFQAajAAhQIBoMej9dgMPX2KjEvjbd6evqHhrR2uyPUZp02r1JiaqMNtjwbEHO0fR1GrXLMZnJ73dCrNlQt4fFQAajAfBSw2x1DQ9qenn6ZTPHWyIjOYrHNwwPDanCL2COPTnXVlotqy8QPjnY1PNCopGarweXzznWiOp/Lh+dABaACUAFUAY/Ha7FMRAW8NRU0Hqo4Zq2z6bHmanFH9XeCfZ/WV3/TcLNc3HBf3dNu0KmAgeZ2+v3oxHMczjpDFRceDxWACsxBAb8/4PGAEPSBgeG3MA+MeaxyYSy7XPT84Be84o2s4vWsw58JLuM7HlZ3cWqVHcxhlcxsNbj9PmijzeGZwEOgAlCB0BUIBoOBwISXxlvzDho3j7paqYO1FaIj3wqKN7CIyQgxCSnKYu3bxjv9a/PNKnH9XaVSYrIZ0RU0uNEZ+nOCZ0AFoAJvVGAqBP2teVhkWOuWUVcbbfBGlaj6O0HxelZ+PG33v+p2/7sOn0AreY9V/Z2gtkzEvqaUsLVKsVmrGrMa3R4X3BZ446OBB0AFoAKhKYBZZ2+FdtK0ozGW3dwrOvp9Q8lGFiGJnruGmhdHwyfTKZlI6Sb2gU94p35ovkIQPj4uF/ytVrTqjSNOOOWcJiF8CRWACoRNgYWy7EaV6OgPDaWbWKQ0hJhKJ+MQciYD/DcDISTR8XH0QhzryJcN10qEzGt9ima9YdDhsHo9Tr/fB/zR4LZA2J4kbAgqsLIVCBPLNrNJ6QgxjU7JZFCyAMuIqfS8NdTd/67LW0MrXs868o3gIvH5o2Ny/i21GMw6TfpBu8vuW9niw7uHCkAFwqZAmFlGRllGQU0zYhpCSKET05CCLEbJRlbF+5x9H/FOfNdUWyJiXu2T8LWjA3afB+5yhu1ZwoagAitZgbCyLJU+wbIsYJ1N/ExwjZ6fSMtdTSWmIAc+5V0mP6f+2S1kDA90WY1DTpvR7bL7/NDDdiX3RHjvUIGFKRBJlmUzKNmTU840Oj6JlhtHzU+kFa1jHfiUd+bXlmsFosfH5fw7KplAN9RntVs9C7sXeDZUACqwchWIJMumTLMsBph1AgMN/clgkNMZBThm8TrW3o/qz+9pe1ojb0eGBnuszjFvMDiO/szbV2TlPkt451CBlazAYrEsC7XRsgHUiKlIfgItdw01Zw2VkEqv2sY9v6f1/hFZ/U2lhKNVScyjGvuY2e31wKLCK7lnwnuHCoSmwCKybNJMI2cgYFsglQ52BtKRwrXMive5hz4TnPqp+RKh4/FJeSt1UN1pthpdMC1aaA8THg0VWMEKLAHLXmwLoHNPUjpCSKYTkgDait5lHfu+8e/DsqbHmt4OI3BGs3k9Lr/PCwoNQ2e0FdxR4a1DBd6gwNKxbHJngJSO4JPoefFgZwCfTCvdxD7xQ9O1QuHjk/L62yoxVzugsFgNcMr5hgcJP4YKrHAFlo5lU1NO1GmDlIGQ0sEPBccozGKWvcc58Cn/9G8tt/dJGx5olFKTedTlccMVtBXeXeHtQwVmVGDpWfZiyol5oqXQ8+JoeXE0Qiq95D0w5bxVJeHeUGLRAqNqu83o9jj9AT9MijbjQ4UfQAVWoALRxLJpy2f4JDohlU7JYpRtYh/awa/5BTijPTou591VoTHqDo8Lxj+twO4KbxkqMKMCUcYybOKZCVw3sB9yOkJIpBOTkZL17MNfCi5TOphX++TNozr12JjZ43UDAw3GqM/4eOEHUIEVo0BUsgyNFpiIUU8BqYRy3qHiE2lF65kHP+dfyG9/fEzOu60Czmgys0nr9LjgOtqK6bDwRqECMygQlSyb3BaYilEnpoIYdUomUrSOWbaRvX8b78zPLbeqJOwb/V3NoyatE8ZyzvB84dtQgZWiQHSzbApqaB4hzBMtdzU1dxW1MJN55CvB1eIOxuVeKVc3KLcahxw2o9vt9MFtgZXSeeF9QgWmKRALLMOmnJkMEDCQinqiraESU+mlm9iHvuDX/N5aWyh+elwhuKvubNCNKG1uB9wWmPaE4UuowMpQIBZYNmWdvQhQR8g4RkEWozCbQclgFOKY+7fxLuS1PzsnF7KGdaoxzGkjAIuor4xODO8SKjA+Ph5TLMOghuURymRgU86c1SB7LSGZvm97/fmc1gfVnYK7mk7+qEZmGR2wj1k8sMIA7OhQgZWgQAyybNJMI+NAnAAhBWR5JKbQC7OZFe9zDu0QnPqx5SpZRD3b3Y4MqeVmhw2mRVsJPRne40pXIIZZ9iJgIAtdSktB8In0/HgaPoFesp59elfzg+OdzU81KqnZqne7Hb4XMeor/aHD+4cKLEMFYp9laIw6GYemRUtE06KtohJS6JVbuad+ab5eLHp6WiG4p5HxRwd7rFaDywczcS/DbgxvCSoQi+tlk3PM6XYZ6okGrDMsQJ2cgRRkMorXsco3c/Z/zDv9S/O9Q7LmpwNKmclqcEGnDdjxoQLLT4HYt8teQdukmQbW0RJAjHp+Aq1wHfP4j433DkrrbyulPB0omDLstFvQEKgAjFFffr0a3tFKVGB5soyC7XKmgIIp+Uk0UjpStol95AvBuT/aakvFT890Nz8ZVErNFjDlhPFPK7Hfw3tefgosO5ZNN9Mm/NFAEXVSKkJMQSg4ZtkmTvU3DTfKxYL76j6h0TDkcNq8IG8tGqMehFba8uvj8I5WhgLLmmUY19CAAXwSPTeOCtKipdCLN7COftNwvUhEPdvTcF8jrdepO0GMutvpAyk34D+oAFQgBhVYASzLAuXsSGjBFGIaQsoAddSL32VVbOYe3iE4+3vrzUox6xrII2QcdgCcQdssBvsxvGSowIpg2as7nhkIIYmeu4qaH0crXAvyCF0iP2dc7pVwtZpOi2HQYTd7PC6YuhaODqhALCmwIlmGA5WfsEzcxFQw5Tywg1fzW+uNEvGz092C++quptHRAbsXlheIpZ4Mr3WlK7DyWIYuoqFF1MGeABkHfigZCCWNUbKOfegzwUXi82fnFVK+zjjs9Dj9fl8A5q1d6aME3n8sKLBCWQZmnViMOg4hpgFPtD1v1+WsolIyGft38P7Ma3tyStHyeFDRqNd0WvQDdrvV44fVUmKhQ8NrXLEKrGCWTe1yojjDJ9HxSXRSBlK8gVW1jXvki4Zzv7XdLJPQL/Q8R4YGuy0uO0yLtmKHCbzxGFBgxbPsFX80HJh4ElPp+AQaMQWp+oB7bk/rwxOdrXWDmk6LRedyWL1up8/nRSeeMfB84SVCBVaKApBljIldzskpJ6ijngxi1HPXgCnnvk/qT//WfL1I9PREN/+WWsLRqjvN5lEnjFFfKUME3meMKABZNsmySQMN2xaYKKKeySh6l1mykVW6nl21uf7kd8139kn591S9HQarwQ0da2Okk8PLXBEKQJa9yrLpzmjkTDTdYzJ9z9t1e/5VV5DBPPZt481KMft6v7R+omDKGOaMBgMGVsR4gTcZvQpAls3OMjRgYKpgSgpS+h7w26jZBeqoPz2paH480Cs0GrUOOOWM3j4Or2xlKABZNhvLJmw0tIg6GYfmR0sDYerkNKRoLfPw5/zaMhH3jlLeqjcMOUDBFF8QxqivjIED7zLqFIAsmwPLMGe0bAYZCxiIp+WspubGUQuzGdVfC64WCp+cVvDvqiVcnVpmMY04XXZvAE45o66rwwta5gpAls2NZZPRAliMOiGVTkihkzOQ4ndZlVu5h3bwT/zQdJUiZFzuA/FPg3a3EzqjLfORA28v2hSALAuBZS+2BTKBjUZKAzHq+fG0/HiQSqhiK+cCvp1xuVfEGVF3WozDTofF+yIKKtqePLweqMDyUgCybF4sy2KA1LUZIEYdZOKOp+YloPFPH/PO/bf1ZrnkKTrr7BSMjijHHFYPrDCwvEYNvJtoVACybL4sQ3H2IkY9AwQMgCLqWSB17cGd/HN72h6fkgtZI0O9VpvJ7fMEovH5w2uCCiwXBSDLFsCySfdaMPdEKwzg0aJ2eQk0Mg6p/JB79o/Wh0e7+HfU0nqtSmo2DDkcNi+so75cxg68j+hSALIsTCzLAitoxDQw6ySkgBj1wnXMii2cwzsENb+21paI686DOupDvVan3QtT10bXIIBXsywUgCwLG8umO6OBep1o9tr8OBo5lVH5Aff0f5vvH+1spw0NyK0mrdNh9Xpcfr8vCAOhlsU4gjex9ApAloWbZdjEc3LKmbMKFEwhZyKV2zgnf266USKm1vQ03tfI+LoBhdVmdMNtgaUfBPAKloUCkGWRYRm2MzBVRx2HFGQzitcxyzawD37MP/+/tvtHOxseaVQys92C7nLC8k/LYjjBm1hCBSDLIsayqZ0B1BkNZK+NB9lr8+NoZZvZp3Y139kv4d1WyRv0gwqrYcgxZgZ11GERqCUcDPCrY1oByLIIs+yltGj0vHhafiKtIItR+SGn+mvBuf+23igWU8/2tD4b7BMZzTonnHLG9HCCF7+ECkCWRZhlU9bZC3804MCBbQ6Q0pDidaxj3zbe2iupv6PseW6wjLp8Hpi0dglHBPzqWFUAsmwRWfZKwZRE2p5VdXlxtJINrGPfN14rFlLP97TVDakkZpvRAyebsTqk4HUvkQKQZYvLMtRMm0pdS0ilE1PpFByjZD1r77b66q8bLuY/Z17uH5Rb4WRziUYE/NpYVQCybAlY9iJGHZ14EtMQfCIdnwi4VrGVc7NC0tNmDPjg1masDip43UuiAGTZkrIM3RnAWJafSMtPopVuYteWiLtbDH7IsiUZEPBLY1YByLIlZRk25cSBqgIgND2TUbWNe7tKCuwyWFo4ZgcVvPAlUQCyLCpYRsYBkBVkM/Zur7+9V9rbDlm2JMMBfmkMKwBZBlkWw90XXjpUYEoByLLoYBk6wSzIQu2yqlntsuB4MBD0+4M+T8Dj8nucfp8nAMsLTHVo+CImFAgGxwP+oM8b8Lr9budEN15gngXIshhjWcAfdDt8NqNbpx5TycxKqUk/6PC6/THRg+FFQgWmFHA7feZR53CfrV9s6heZRjV2j3NB3RiyLMZY5vMEbEb3UK9VytfW31Gyb/RL+TqzzgX3CqYGCXwR/Qp4PX7DkKO3w9BKG2TV9rFq+zsbR8fMnoVcOWRZjLHM6/abdU6lxNTwUHPngPRKYcfTMwoRU6vptOoHHDaj2+30wSnnQoYEPDdCCgT8QY/Lbzd7DIMOtdQsZIywr/c/PN5ZWym6d0TaRhuyjLoW8tWQZTHIslFXv8jIqe3/c3f7vo94Rz5vuJTX8ahaLrinlreAinawiPpChgQ8N0IKuF0+44iju83Av6t+dEx+hSSs+bX15E/NNf9rublX3EodNEOWveRGPz2WO0Zek3ETzmVzWfv3evwWg6tfbGJc6jv+dRM+jr7n/1GJici+D3mXSc+Ryz0ygc4w5PC6wYZAwB8MBGBG7giNTdjsGxQIovtUgQBY43dYvaMau6JFz7rad5HwfP8nvMJMFimZUbKOXf1tw40qcRttENplS29YLRCmIbIsYEVZhlzorf6sYc+/qL/+f0/++L/PSKnIwZ38i4T2RyfkDffUMt6oWmbRDzrsVo8fut2+YdDBjyOigN8fcI55DUMOpcQs4WgF99RPTykuEZ4f+JRHxjFy3qHu+U8dOZ1x6Et+baUIsizmQUZBi55gTv9zs8sCE3bZxb6jXzbmrqL98f+e5cXTSGlI0TpW5fvcgzv4J39svlogpF/oEXFHhvpAtZSIdFXYKFRgZgUCgaDT7tWpx8TcEdpfPbUlojO/thz6VFCxmVO0jklKR/ITaPgEWtG7zOpvBTeqIMtiZBY5u+EWol32Yo557OvG/Hh6zmoqCIHCMYgpIEYdFFFPppdvYZ/f0/rsrKKNNqiSmk0jLofV63b6fF6YHG3m8Qc/WaACwXG/Dyzwj5k9+gGHSmruYAw/rVGcy2nd+3E9BcfIW0PLW0MjptDJGQgxlU5Kp5duZh/9oQGybDkYZaHbZdNY9k1jfgI9dw2VlIGQMxnEVCQ/kZYXR82Lo5IzkL0fcc/sarleLHpyUsG7rZLxdFjVYVigc4EDFp4+iwIuu2+4zyblafl3VE9OKK4XiE793Lx3O7dwHQOfRMtdQ82LpxFTp1iGlEGWzW7pxNanYbHLwC2jhQVIaMEUcvpkEfWN7P0f88781vLgaFcbbVAjN1uNboizWUYj/GgeCoBYFF/QbfdplWPtyNDDE53n97Qd2M4vzmRR0hkUHKgeS85AwB9dHPi7C4rJArsMgXbZMrHIMOaGjWVoBiEMaqR0BJ9Iy1sDbDRCCr10E/v0rub7Rzp5t1USrlYtNRvQbQGQjxtmsJ3H2IWnTCrg8wbsFo9+wK7ptMgb9I1/a+4f6TzzR3PlNi4xGdnz77qcd6j4JIAtciYCOidWASOTQUyDLFsWa2QYxSLHshdF1JPphFQ6JYtRvplz+HPB2d9ba0tET88oWusGNXLLmBnaaJODEv5/XgqMmT2qTnMbbZB2vqe2UFzzc+vhzwSVH3AK1zGJqXSwwJ9EJ6YBcwyUuYAsmz7yl9/rsNll/6Q8WiSFgpr3xBQ6IQnk467YyjnxU+PdA9LmJwNKickw5LBbQDk7rIg6tNLmNaJX0EnodBLkNXDavGadSykxNT5S/10tO72ruXQ9Gx9PxyegVhg6l8TK9PxzzKLLu9Au++eIjfF3IsgyTJlMBikDwSfRc+Oo+Qk0Mg4pf5994ofG2iJR3ZluwV21mKtVd5otoy6vZ0HBvStoQK/gW/V5A+ZRp0ZukfJ0DXc1z051XysSnvy5qWIrh5BE3/N2Xe4asKxBQlO/gBnl1NLHtHEKWbaslsmm/lhFnGVZDDKKM1I6SGBLyUQK1zKK17HKN3IOfsyv+b3l9j4J97ayt8No1QOcQdNsBZPqzbduNbp7hQbBfdXd/dLTP7Xs28Yre49TvI5FyWSQ0hFiGpokGTPKpsFrqrdjLyDLIMvGp8cwTfcve6WvzPZrJoOcgeATaDnvUPPjacUbWNXfCq6XCNnX+mX1Oo3Moh+w20xuj9MPc2+8eWSvgCNAmimnz272mLWu4R6bjK/j3Oi/tVd87LvGgkxm7ipqzirQkQjJdLAoNrkiNlsPRP+4wn3MZYizRbDLXupYKMsIyWgRdXTKWbqZfXAnv+aXlusU8dOTiob7annzqH7QDtOirQBSvfkW3S6ffsje89zQ+EDz5KSitkh07r+tR74UlG1iE1ORvHhaXgINn4wu8GeiM8rXTSpf6oGQZa/IsWx+XWyWTS6ikYHXD/D0oeAQUhpCTESKcKzDnwmuFHbQL/V0NugMgw7XmA+Eqfuh58abx/yyOQKLCQ8GQGICt8M3qrF3NunYtX2XyR37P+YVrWVSMhjkdAY5A+0/mWAFg4ztMs08qXxltMI55jI0yhbk9z8thumVvjKnXzFPHxxCTAORT7tRV6DCbObhL/kXie2PQYy6RlavU0nN+iGHCwZ1LhtWvelG/D4QE24ccWq6LDL+aMN9zdPTisvkjoM7eaR0JGd1Xe5qdFKZQifj5mqIvdIhIcsgy8KxXvbKH0/MCTsNwSfTCcloEfWNrKoPQYz6qR+ba4vFjMu94voRnWbM7w+8aRTAz5eDAs4xr1Zlk/J1jMt9N0rFNb+3HvmioXIrt2gtk5QGOgkhBcwoJ3YqX+lOc/sVsgyyLAIsm975sCiodISQQs+LA6u5e7fVX8C3PzunELJGhnttNoPbafO6HWiMOiysvhzABe5hymXMYfUah50gJpw5TPuz+6+89r0f1RdkMQhJEzkLQGzclNfr9J4T4mvIMsiySLJscsoJ4p+SablxIAy4IIu5/xMQzllbLH56sltwRyPj6wZ7rDazGy6hLReUgZJIDptnpN8mE+j4d9VPTytulIhrdrXs215fuJYJtokSwAI/AUwq0Z3KEMn1ygQTrKuAVAjQV3bBOv5T2aV9Z2nW/meREbXOyDg0EjgDBAYXZjGLslmVW7hnfml5eKyrlTqgkZsdNpgWbTnQzOcJjJk9w322DsbwoxNd53a3HtzBL93ALsCBNX4sYQEZiwnHgV/DMlggy8KjY1geRhgbiTqWYZhDzTQ0Rp2eu4a2+z91OauoJetZZ3Y1/31Yxruj6hSMDiqsxmHnmNnjccOdzljiWjA4juWtNgw51J2WTv5ow9+aB9VdNb+3VHzAIaUjuaupICY8kYZlCQ1jb8eagiyDLIvkHPMVS21yyklEtwXyE2j5oGeDGPUjXwjO/re1tkRcd7a7jTqklJnMeifMIxRDMAv4g3aLRyO3tNGHaBd6bpZJzv3WeuQzQcX7aEx4Goh4AzHhqWGbVL5CQ8gyyLJFZNl0tGEzCyxIJZlOTEEoOEbZZs6JH5vuHZQ1PFT3PDcYgN+Gz+cJ+H2gbAoMhIo2tAF/MX/Q6/Y7rF4TusDf/GTg72rZmT9aKj/gklIQfDydlDq5tB+iv9grqHrjr5BlkGVLxLJsRsGLKSctL44GsoOm0cs2s0/82HS9WPT0tIJ/Vy3h6gbkFove5XHBcinRhrJxvw9UvRlQWGR8XcM9Td3p7utFopO/NFV9xCXj0EnlKiqIQ8JiwucWivRGZs10AGQZZNkSsWzSRpseo07OQAoyQYx6xRbuoZ2C07tablZI6u+o+oRGk87pccGUG1GEs2AgOGb29EtMggeqvw/Lzu5q3f8hv2wDp2Q9q3AdE8t2B7KMTYFs8onPBKMFvg9ZBlm2xCx70YMnPGxBsr28OBCOV7iOeegLQW2piHtDKa3XaTotWGY0j8vvhxsDS4G1YDDocYMyIsZh53CPTd6or7+tvL1PfPLnxuJ1rNy3qXv+A1b30cI34fG0eNE93oRCyDLIsqhhGVpeAPVEo+cn0vBJNFIGUrKRdWgH/9zvrTdLJXVnuxsfabrb9IYhh9vpg+tni0+zgD9o1Dp6OgzNTwbqanpulEjO/6+t+htBxQcccjqSuwaUucESjYFoyghPKl/BHGQZZFk0sQyrlgIMtMnQYhyDlIKQUxllGzlHv224WtzBuNrb2TiqU4+B1LUeUM4O7glEEGrB8WAQLPBjfvyWUZeiTc++2V9bKjr8uaAom0XJYBRkgR/Ua2zywb3JhnoFQ2H5FbIMsizKWDZtGKBrLvS8OOqet+vyE2nFG5iHv+JfJDx/ckIuuKuW1uvUnRbTiNPt8EGcRQhnWHld44hzsNuqaDa0PB6sO9t9tbCj+mtBQRYzZxU1ZzUVnwQ2beaeaCws5PpnI5BlkGXRyzLMQZyYCmKPiWi1lOINrIotnIPb+Wd+br1VKWFd75c16AxDDp8HxqhHhGYel1+rGZM16tjX+2+WgyCkI18I9n5YX7KeRc4AMbZgRgnKQk+WEZn2p+ifuInoO5BlkGVRzLJpAwMktEILU+fF0XLfppJTGQd38i9RntMu9Ei52uEem1nrsls8HicomDIOY9TnS7ZgMOj3gTIiLrvPqncPdluF7BH6pZ5LpOdV27gTZZASwV8XkNNi2gNa8teQZZBlUc8yrFbFNJaBTNwJ9OINrEOf88/90XqrVEI909P4t6azQTfcZ4VBnfPlGDgvEAjarR6takzRrG96MEA913OrUnLuf60HPuVRMhl58dTcNaBazYuYcNRJcMlBBmPLlyfIljIXY0T/UGPpRrEi6hlIQRajaB2zaC2rZB17/zben3vanpyRt9MHh/tsHif0RJsP0ADILJ6hXquIM/KsRnF+T9uhnfyKzWgZERyDjNapATNKEBYetpjwcHEQ2mXLE2dRGlseLtJlg4FEmphyUnf/py4/nla5lXNud8v9alnD3xpFk2Go22YcdtqtHp8XLqXNxjUsJtw55jVpnYMKa1cDSPr6+IT83O7Wiq0cYhqo4ZC3hopPoJHS0GikcD3EcLcDWQZZFvVzzH92+skYdVI6gmXCwifRC7KYlVu5R74Q1OxqrS0S0873dDCGNXLzmMUz21Be8Z8FAiDR2HCfTaFW3EEAACAASURBVMgcpl/ouVUhOf9HW/UXDRXvcwqyQUYwfDL4ATHhi+XBPz9LDbIMsiwGWfYK3VB/NFAqJRkhJNEJSUjxOvapn5sfHutsfjagkpltBrfX5fd5QYx6MLDidwaCIOlrwB/0eUAOfrPWOSC3PEeGHh7vOv1bc+WHXEoGAx9PJyTSX2R8DVOKsflBao5nQZZBlsU4yyZ3BohpSH4iPXcNdc87wBmtfAvn9K7mm+Vi6rmepgcDXQ2jQz1WEKPuhktpINGYzeQe7LF2Now2PxpA/uq9XSk9/Wtz5YccMg7Ji6Nh5SnRKs4xM0Agy2LmUc3xrxN22DJfL3vFLkN/JePQFbS0iTLXBVnM0g3sqg9AwZTTvzTf2SdteKDuFxvNoys9LZrPC5K+qmTmhofqv4/I/sxpO/JZQ+VmLogJX8ukZIIi4cRUrFR4LI0OyLJYelpzx9kKZNlL4mQyQLrHRFAdIy+eRsEhR74S3N4rqb+tlAl0Q91Ws87lsHm97pVSRx0s8HsCDpvXNOIc6rEpmvX8u+pbeyXHf2os28zGJ9KxgvOxZYi99MRhvv9X5Fg2v65clmFTziwGti2Qn0jLi6cSkmklG1hHvhT8uaf9VqWEeq6n+clgv8hkHnWukDrqwWDQanApJaZ22hByofd2hfT8H21HvhSUv8+mZCJApTgqPgl1f130mPBwDTpol0G7LMbXy1433wTDA3NGQ4uoA3+odISchhRmMcu3cKq/brhWLKq/rexFU9c6x7x+NOkGCOpcRgEDwSBwfPV7A16332Zw94tN/L9Vdw5ITv7YVLaBQ04F/mKUTBB+hP6gwfwziRkL70OWQZYtU5ZNDT80LRpWnTN3DRWkRXuXefhLwbVCIe18T/PDARkfxKgbR5wuuy+wjJLXuhw+k9Y5oLAqmgxtT4bof/bWlolO/txYtomdFwcKx+TFUSc8LRY3OU+4DLFX2oEsgyxb7izD0qKhjrVocWw6JZNRsp5VtbW++ouGc7+33igT0y/0SHla/YB92aRF83sD+kF7Z6OOc6P/doW05ufWIzsb9m2vL9/CLshmEFImy4hkIBOJxqbQH7MvIMsgy1YAy6bGJ1o+A6QSSqHnx9Hy42gUHGPvR9zze1qp57slXO2AwmoacTqsk9sCsTPlDAZB9n2Py++0eW0Gt7Z/TFKvRS71XCno2P8Rj5CA5L5DJSRFS06LV0yqsPwKWQZZtmJYNhkFjbEM5NtYTc1PpBVkM/Zu59bsarlVLqGd62l6qOlqArke3U5fbAUFgDrhSpuiVd/yeBD5s/dOlfT8bhBQWZjFzF2F5oBLeDnR2KQgYUHJkjcCWQZZtmJYNs06w5zRSOloHXU091ZhJrNsPefI54KLhPanNXIRZ0Q/4PC4/LFSy87t8A33WTtYw9Tz3Rfx7Yd28ss3gZjwgkwmOQPs6mJZxsCMMhac+OdBxqhnWRp92czn5/F45n3KyvXJmALW3F6QUddQfBLwdM95m0pOR/Z9Un8up/XxCXnrk8GeViMao+5w2LxRGKPu84IgJMuoS9s/1t1qaHqoeXSy68/ctqptXEIKPXc1FZSASaQT09BEY8vLCvvn0Ig6lrXSBm9UiY5+31C6mQ38jyHL5jYmX3m0kGWvCDLjr5PFn/CJtHx0Cla0nlm1jVv9ZcP539pul0mZl/o6WMMD3ZZoS4sWDIJEY8P9Nkm9lnm5706V9K+c9mPfNFZ9wC3MZhCSQU14NCYc2J7g9iHLQl8yeCv0UybOsIy6WqmDNypF1d83lG5ikdKwiu3Lcxo44+iaF7xeaQ2y7BVB3vwr5o+Goo2cjuAT6IR4pHwj5+x/Wx6e6GytG9B0WWwGt9vhw6IFlqBiymRMOFjjd/otepdGbulgDj89o6j5b2vlB9yCLCYpFSEmg1LhaIoxNG/1Mp1R/vOBRpddZta5WuoGrpUJD33FL1zHzE+g4RNpIJX4pDP3P28AvvNaBSDLXivLbG+iZgsoPIzmEcpZRd397zpCEr3qQ+6Z30CMOv18b8ujQXmTfqjXajW6/L4lSIvm9fhtJvdwn03epG95Msi41Hd3v+zsH61VH3JJ6UgeqCsKkr4CrzFcdCWwnk35cPzxjrq8sijLBq+Xiw59xS/IZuatAWY/sJAhy0J83pBl8x48E4UF0kBhDlIaUpDJLNnArtzCPfip4NzvbQ+qO5ueaJRS0+KnRfN5AlaDS91pbno88PeRzj9z2o9+07hvW33pBnZhNpOcgYCsR2kTa/zLdYF/lscaXXaZzeiWCnRPzyr+wrcf2MEvWscip4PkB9guDCkqM/POIu4SfgRZFhbxQamhZBCgnruKmruGVrSWdfKnpruHpLx7KkWLXqeyW/Vuh9ULtjsjEDAAgpD8oE64w+Y161xDPVZ5o17wt/rufumxHxpLN7GJaUhePC0/ftIQWzHTydc+3Ohimdvp16ntnY2j3FvK23slp3c1V37AJaYiOaupwBVoomICuoq53BcyX/u05v4mZNnctXr9kehUgIxjEFMRfBLIE50bRyWmIeVbQMnhv3Lab1cAZ7TWZ4P9YpNR6/B6wp8WLRgcdzt9xhFHn8jYWjeIXOy9UyX7a3d79ZcNZVvY5EwEn0wH6zBJIHv1CpxUvvLgootlaD2roMPqHey2ttIGH53qqvlvS+lGkJMkPx7dXU4Bi5qv3AP89Z8KQJb9U5N5vvMiRh0typ3BoOAYhZnMkvWsQ5/xr5eI6u8oFW16w7DD6/IHQZVv8DP/GPXJFnzegMPqHR2wK1r1nJv9NypEJ35qqtjMpaQySSkIJWNa8PzydRkL6ZFFF8umNkAdNu9AN9ijof3Zc71AdPqnlsM7BZVbuUXrmCAvVXIUVRgNSe5FOxiyLMxST5ppIEY9npazmpqzuo6MQ458KbheIqL+2dP8eABsC4DMaE6X3TvvKWfAH3TZfcYRp6bL0ikYbXowUFeD1gn/TlC6iYVPpO/5NzV3FZWYshJX92d/plHKMr8vYLd49IN2TadFLtA3/q15dLzrr7y2A5/yyOlIDli8oE4UTI7ZdEuzP5gFfgpZtkABX3/6RPEnsIiGT6aR0ujF77L2fVR/7JvGc3+03SyXsK72dzWNjg7YXY75xD8Fg0G3w6dTj0l4Wua1vtt7pef+C5K+Vn3ALXmPVZCFVhJJQv+QR3cZkderF+L+VaiNRCnLxseBoQ7CRwJBr8uvH7CLuSPUvxSXSM8P7uCjkRmMAixHFW7ClWYZB2eE+lCXbX3MCA+GEHSedEMDUEOLeFMyGVXb6i/g25FLvZJ67YDCYhl1uR0+nxetljI143jdi0Ag6MWSvmqdg3KriD1Sd777ArH94Gf8Ahwzb/Xk6j7Y+0JdxqJHh2i6kuhl2fSH7nH5tOqxrqbRxgeaujPdN0skNb+3HNjJK97AIiTTc1aBWA1gpk0lMFnxOwPQLgsBTPMbkGgddUIKloabmp9Eo2Qx9n/MO/9H250qKR2ddfa0GYzDIHXtLCtoweC40+4d1dh7nhtangzSzvbcLJ3s3uuZ+EQQXJUXRyWkTiZ9hf5JMzyv2GBZwB90O31jJo9x2DncbZPxdPSLPRfJ7Qc/41EyGDlvU0E+k+TJfCYz3GrEO3c0fS9k2WI8btQ6Az5DGeiWFA6h4BhFWayKTaBM5wV8O/1CT99zo8PiCfiDM8UJBANBk9Ypa9QxrvRepQgP7xCUvMsuWsssXMcE9jXmkAS9keYwuGKDZdNtNL8vYNY5O9Fnf6NcfObnloMfoSkB1rMKsoHTNjEVBNNGeV3SSI80yLJIK/xq+6iZBsyod8DaPCGFXvkh93qxqAMZNo0A02ym3YBAIDjcZ+PdVV0t6jiwg0dMRnb/uy53NVjdB17iK9tl7FWRZyVa7LFsfHzc4/IbRxxKiUnC1Tb+raHW9FwrFB39DoSjE1LAlDN3NehMLzxuVt6UE7IspGEQloNBWrRUOloHBEwMyemMml2t/DvqoV6rw+b1e18f8xTwB5Vi08PjXdVfC4rWMQlJ9Lw1VHwiDUvRE5YLWyGNxCDLJiNsvag/tEnrVErMgr/VNyrFx39sLNvEIaUghEQQfULBFkpXpPcNZNmSDWC0nB0o0RZHO/Z1I/NSn1JqshrdPs/rWeb3BbtbDLXFYuDHn4quk8A1/lntr5mebAyybPqEcxwEedhMbqXU1Pxk4NlZRW2J+Oyu1kM7BWWb2JTMibzm+GSAthdm2ryUmknB6Hwfsmxpnks2A1vo2PN2Xe4qWvXnDciF3j6R0aJ3zRQY4PcFFU2GqwXCovUsfDLtRX6LFdBLw/uMYp5lWBFTu8VjGHSoZWZpvY53S3Vnr/TY943FG1lY9R1sl3NFraBBloV3nMy1NXSTkYS6QObH0Y5+1ci42NsvNloMs7EM2GUl4rLNbJCtDxpl84V4zLNsupXmdYOkTiCRwCPNnf3S07taDnwKtgWKspkFmEPQ5JbTss9VC1k2V/rMd+TM0j5g2Wpqfjz92NeNjEt9/WLTLCwL+ILdrYYbZZLy9zlo9oQJf8lZ2ocfvVaBZcWy8fFxn8dvM7oHu60SrpZ3W/XkpOJ6sejULyBGnYxD6zPHg3ybL7IGL9NtAciy13b3xXnzBcu+mRPLeloNN8skFVshyxaUdXV5sWyqUDNaWcs45OgTGpufDjw60XXm95aK9znkDAYhCThqE1OXT1nA145PyLLXyrI4b75gGbTLImD2zvQQlxfLpk84QRQU2BbQKCwdjGHq+Z7rxaKaXS2HPxdUbOEUZDMJqaDcKVr8FXVGW0TRZ3oYYXwfsiyMYobaFGRZqIqF5fjlzLLxcVAtbQzdFgBZB/ij/LvqB0c7z+9pq/yAm59A2/02cEpEcwqjZtoyig6BLAvL8JhfI5Bl89NtgWctc5ahyaRA9EgwOO6y+4b7bB2soWfnFOd3t1VtrS/MZFIymOR0BjkDTU2FYyybAHXIsgUOjIWcDlm2EPXmfe4yZ9nLk85xx5h3uN/W2TgquKt+clxxvRDMOg/u5BevZ+GT6LlxIEIY7ItjdR9i2UyDLJv3kFj4iZBlC9dwHi2sLJb5fQGXwzdm9lh0ruHeMQlXS7/Yc6Ww4+BOPikNmZhvoj4+sR4HB1k2j8EQrlMgy8KlZEjtrCyWvWKmmbTOziYdu7bvZpn45A/N+7fzKrdyyzaxC9cyQWExLEYdF5M7npBlIQ2D8B4MWRZePefY2opmGYhRH3aopGYJRyu4o356SnGtSHjip8byLWx8Ig2EoWDZa7F0BTE15YQsm+MAiMRhkGWRUPWNba5olgUDQVAC2uV3Wr2mYWfvcwPvrvLOfsmJH5tK3mUTEuiE5ImYEnKsbQtAlr2x60fuAMiyyGk7S8srmmXTp5wBX8Cid/WJjC3PQLWI6wWiM7+gzmgfcArXMgnJoGIFHk2/ERMx6pBls3T6SH8EWRZphV/bPmTZBNCCwaDX7R8ze/QDdrXULENj1O8ekJ7+vbniAw4hib7n33U5q9DstVOZuKPYvRay7LXdfXHehCxbHJ1f+RbIsunGGXgNqqW4/SBgoMvS9HTg/jHgW3vgY35JNrsgg0nBMci4iTrqIKVBtKb9hCx7paMv5q+QZYup9tR3QZa9yjLsd78vMGZ2D/ZYpXyd4J762anu2kLxyR+bKj7gkDOR/AQacOCIR2PUoxJnkGVTXXzxX0CWLb7moDZCJqi5R0pHSjezj/7QcKNK1EYbtIy6Xj/C5/buW3M7LIqPQlPXYtsCWGY0ldTcTht6dLzr9G9gyklOY+SvAZW+SKmTZb6ijGiQZUsynLAvhSxbEvEhy96M1IA/6LB5QPwTY/jZ2e5rRWBb4BCaGa0wG/VES5kWox4dUIMsW5LhBFm2hLJDlr2ZZePj435fwGHzGgYdKolZzAGZ0R4d6zq/u63yQy4xDcmLA3XU8+JpxNTJ+Kel3haALFvCQQXtsiURH7JsTiwbR6PTg0EAtTGzZ7jPKq4fqTvXfW53277tvJL17AIck5yGkNMnkoJO+KMtHdEgy5ZkOGFfClm2JOJDls2NZdOOCgaDjjGvTj3W1TiKGmjy60Wimt9bD+7gF73LxCfT8hJo+MSJOuqULFDMgrLo2Wshy5ZkOEGWLaHskGXTKDW3l5h15nb67GZQR10tswhZI6DodJHwwA4eyMSdQMtPoOGTwJYKeLSLDjKwp4ObqHZckMXYu73+dpW0t904U7lZr8dvMbj6xSbGpb5jXzfmx9NzVlMnLn7pTMslHBUL/Gpoly1QwPmdDlk2N4DNfJTX7dcP2rtaRjk3+2+UiU/93HxwB7/yfW7xuyxyBtgkxlLXomUpFpTOPKQHDFkWklzhPRiyLLx6zrE1yLKZKTXnT1wOn3HEoemyyHi6hr81T08rrhYKj37bULSWueedut3/BtlrQfzTIpppkGVzHACROAyyLBKqvrFNyLI5E2uGA4NYwRRfwOcFYepmnavnuaH+rvJmpfjwZwJyKvBEIyTSiSkgWmDR4gQgy97Y9SN3AGRZ5LSdpWXIshkQNd+3g8GgWe/sExmbHw88Oaa4ghee+rH50E5++RYOJZOBT6LnJ9IIqXQw5cQ80SKzmgZZNkunj/RHkGWRVvi17UOWzRdaM5/nQcM59QOOgU5rJ2+0/qbqzn7J6d+ay7dw8hNoOauoaIHOSU80yLJlt70AWfZa1kT6TciymZm08E+C464xn0ZuaXqieXCs89wfrfs/As5oReuYhWsZlEwGKR2deGI2WlgDBqBdFumRM0v7kGWziBO5jyDLFk6sN7QwZnYPdFukPG3DPXXd6e5aUEe9qWo7l5LJyFtDy3kHLWoX7oIpkGWRGzNvbBmy7I0SReIAyLI3kGiBH093RjNrXYNy63P60IPjnTV/tFRu5RISkdy3Qb4NEsqyMO4MQJZFYrTMsU3IsjkKFd7DIMsWCKvQTve4/MN9tnYE1Oi8ViA89X3zgY/4ZZs4heuYpAyEkAKychPTJnNvLGAhCbIsvOMkpNYgy0KSK1wHQ5aFBqMFHh0MBJ0276jG3i8yiVgjvJuqB4c7z/2vde/H2JSTuuftOmCmpSMLLGoHWRauETKPdiDL5iHawk+BLFsgnUI8HY1RDwSCHpd/zOQe6beJOCNPaxR/5rYd3MEvWccmpzLIaQgFB3YGyJloNfVM8DrUJw1ZFqpiYTwesiyMYs69KciyEGEUvsMDgaDT7tWqxmQCXf1t1ePjclBH/deWA5/witYziWn0/CQacEZLAbWgQsUZZNncx0DYj4QsC7ukc2kQsix8cAqxpaltAZvJM6qxqyRmEXuEebnvMrlj/6e8gmzgWJsXB1JugCknLjScQZbNpfdH6BjIsggJO3uzkGUhEihih7udPsOwQ9GqZ13rv14sAjHqaOraorVMcgZCTKMT00BE54uAgVl3BiDLZu/3Ef0Usiyi8s7UOGRZxOAUYsPBYNDt9Jm0TpXULGJp62+pHp+QX6F0HPlSULiWmZeApq6No4JUQhlvTiUEWTZTj1+E9yHLFkHkf34FZFmIyInY4S9i1D0BbK9T3qKvv6O8Xio6uJNfmM0kpiLEZBCj/qLY8Mx7ApBl/+zri/YOZNmiST39iyDLIganhTXs9fiNI45eobHxgebh0a7LpI7TvzQf+oxfvpkNYtRT6PgksC2AOqOhu5wvx3VClk3v5Yv8GrJskQXHvg6ybGHIidjZgQCYctqMbv2AQy2zSDhadm3/nf2SU780lWxkgQKda6hgZ2CGKSdk2ZIMJ+xLIcuWRHzIsojRKHwNB4PjNpO7X2JsfKy5f0R25tfmvdvqSzewi9ayQB31DDRGPeOlaAHIsiUZTpBlSyg7ZFn4kBPJlvz+gMXg0sgtknot/7bqyUlFbbHozG8t+7bXk9IYe96m5qyi4pPBRudEUCfwswVuHAXZMN9/yJ7GCxyQ0C5boIDzOx2yLJIECl/bwUDQ5w24HD67xWPWujSdlnb60NMa+Z85beUbOXmraLmrqETUqxawDAUZ5mELa5fMb2As5CzIsoWoN+9zIcvCx5tFbMnt8A2D+Kdh+oXeqyTRia+bD37Mr/qQW/oei5LJICSDnQFQeBj13ti7vf7OXliHafGsM8iyefNoISdCli0igcL3VQF/0GHz6gdBtICUoxPc0Tw+Lr9IbD/8FfDeyHkHjVFPQAMG0JpykGULGSShngtZFqpiYTkesix8gFnMlkCMejDgD/o8AbfDZxhyyBp0yOWeq4Udh3cKCjOZxGRQRB3rIlXbuLcrpT1tsD7mIplmkGVhYVOojUCWLSaBIvVdXk9AP2iXt4w23Fc/OaG4Rhad/rl5/6e80k0sEg4p2ci6ViBUNOn9vuBrrwDW+g112Mx+PGTZ7PpE6FPIsteO7hh7E0siZDO59Rq7WmoRs7XIxd5LlOeHvuIXvssoXs+8TOyQN0CWQbtskRSIEK1mbxayLMawNfvlBtHMaCatU948yrzae6NCdOrXphM/NN4/2Nn33BTwQ7tsMQYztMtmh06EPoUsmx0OMfmpx+U3jjiVEpOQNcK9qWRc7G17NqRT2YMByDLIssVQIEK0mr1ZyLKYpNUsFz0Vow5S15o9WtWYutM80m9zWL3B16NsHK6XzT5IQv0U2mWhKhaW4yHLZsHCcvjI4/LbLR6HzevzBGa6n5dY9k1jfgI9ZzUVJICcNUUa/HQmBSDLZlImou+/yrK9ojbaoGXUNVO3n8v7b83lIHjM4igA/Da8AZ83EJhhgjk+/rJdBlm2YIJDlkWUWTM1/grLbkKWLQ5ioupbXthlF/uOfdWYH0fLWTVpl72cSmimbgTfn64AZNl0NRbtNWAZmnu5dBOr+ntBbaWolTpohnZZVLEm0hcDWKZ39YmMyF+91Z815L5D2/N2HSkdKcgGoemL1heXzRdBli3Jo5xkGb1kI+vQV/yrJR3NTwfMOjjHjDQ/oql9rydgNbj6xSbGhb7qzxsBy/5TR0yD62Xz5Dhk2ZKyDCl5j3X4a8iyaELMol2LzxuwWzwDCkv9TVXNL63kNEbuaio+kT6Zt3Yyj9CCF5KWpIsv/pdCli2y5mQcSOFHSKHnJ4KUCuVb2ad/b75/rFPEGbEa3AsZR3DtfyHqLcG5AT/IYWsYdDynD9eWiPaCnGhI7moQoJ4Xj+bbwE1WS4FTzjkAHbJskViWzaCgHZKYhuQn0nLjaDmr6wgp9AM7eTcrxfz7KqXU5LB5FzKiIMsWot4SnBsMBP2+wJjJ09NuoF/suUBoP7iTX7yWRUpGQKkUNGMtSFSLVlNfpG46B2RE7ZVAlkX80WQyyNN/MhjkdAYFxyjMZlZ9yP0rt515tU/RqjcMOzwu/0JGFGTZQtRbgnODwXEQ/OT0jw7YOxt1vDugnN31AtGZX0AR9eINLFBEPYGWF08jJKMV7Wau/xTxThwLjIMsi2A3yAapRqdmlHlolcWid1kHd/DP7Gq5QhY+ONLFu61StOhHB+wOm9fvm9Gtci4jDbJsLipF2THB8YAf4MxmdOvUdqXELGZrmVf6rhR0HPycX7iWmR9Py3mHmh9PI6UhlEy4LTDbtgBkWURZhvqRIfkJ9Nw1oE8Skun7P+FdLeygX+zpYAyrZRbjkHPM7HE7fX5fIDhTsMvcxh9k2dx0itajgsFxrOpwd5uBXdtfWwqKqO/fzitdzy7KZhZkMsgZCKigPuci6hHs2VFppkGWhf+Jo2nfSRkIEe14FByjaB2rbCOnamv90a8arxeKWNf7Oht1+iG737sgQ+yVQQlZ9oogsfdrMBj0uPxmHVZEfaT+purxcflVsvDoNw0l77GJqfS8eBqoaJeIpq6FU86XkQpZFjaWTa7ukzMQYipY6MhZVZefQCt9j33su8bLpI5H1fL6WpWIOaKUmAxDDrfTF97BBlkWXj2XoLWpAHWv2++weEc19u42veBv9a0qydFvGkrfY5PTGYQkOlg+S5+sZQeJNkk0yLKwsQwrxDNZi4eYQscn0ouyWce+bby1V1J/W9nTZjANO502n8fpnwjUmyGBwvxGEWTZ/HSL3rO8Hr95FCQRan488Pik4mqB6MyulkOfCco2sckZCD6JNnsR9bD17ElYRHmDkGULf0BkHFjEICQDW4yQTC/IZlZs5Rz6jH/qx+bLBOGTE/Kmx5peocGidy1sQewNgw6y7A0CxdzHWIrHMRNaRF1qEXO03JvKe4dkp35pKn6XmRtHzVk9WxH1hffs2GoBsmyhzyuTQcoAvq+5q6m7/1WXH0cv38w5tavp9l4Jp1YpYWuVYrNONWYzur3uBblcvHEkQpa9UaIYPiDgD9pMblWnuaVu4P6RzpM/NVVu5Za8yyrKRouo40CN4ckfsH2+0G4dI7bY9NuELJuuRgivJxf40dKuSEEWoyCDUZjBqnq/vua31ntHZA2PNOpOs93s8XkCMyVJDu/QgiwLr55R15rfH7Aa3YM9Vmm9FmwLHJNfKxSe3tW8b3s9BcfIjaPmrqGCqQFaexh05RUWLQBZFgK/Jlf3Ma8x4L6/mpqfSCtYy6j6iHvix6arJOGjajn3hkrEHtF0WWwm9yzZq8I+VCDLwi5pdDWIFVF3O3wOq9esA0XU22iDT2rk53PaKrZw8An03NW0/PiJnYEVaJpBloXAMszuBmv8YIEsP56Wu4pKSkWqtnFr/tfy8HhXG3VIJTbrNQ6bwe1y+HzehbqMhTSWIMtCkisKDkb9/gP+YGBe/cTt8g33W4XsYdpfPVfJwuPfNu3fzqvYzClayySlIfhkEKP+YrszBueMoY5MyLI5KYbOKIlpYF2MmEon45Cidcyy9zgHtoMF/quFwmdnFc+RoeF+m9PuXUxbbPqAhCybrkYMvAZ2lifgcfm9bv88liGCwaDD5hkdsCvFJjFLy7upelDd9Vd+28GdfHI6Y8+/6/b8pw4kMEgD/RX08uU+5YQsmwvLyDjgMpYX+FU3+gAAIABJREFUB3z3c+OoJBxS9RH3/O62R0e7eLdUItZIn9A4qgFxSPPok+EadZBl4VJykdpBo5d8drPHMuoyDTtNI64xo8ft9IMQkJkza7+4ONSs8/sCXnfAafPp1HYJT0u72H2Z/PzAdj4llUlMQigZ6D4A+FMMooKX98QTsmw2lk3GhFNwCDkdISYjpGSkKJu1d3v92f+1PjvbLePrtKqxMbMH+8sanNdc4UXnXNgryLKF6bfoZ/t9AYfNqx+w97QYmu4O1F9WPX86rJKazaNOryfkPW+Py6/TjHU16QT31I+Pyq8SQYz64S8E5e9zyDjGRIx6CohRB1BbjmYaZNlrWIYa42QcmFFiDonEVHrROub+j3mnf265QhLeP9zJrlXKBLrRAbvb6Qurx+v8RxRk2fy1W5Izfd6AzeTWyC28G+oLu54f2dZwObej/qaypwPzRQytX4FsaA6f1eAe1dg1MouMq2Nf679RITr+Y2PJelbealrO23Ug+GlqyrnsVtAgy2ZiGSkdwSeC6Lf8BBoZx9j/Ce9KQQfjcm8HY7hfaNKp7TajG8SEz1CUevFHB2TZ4mu+oG+cyJEtMlLP9OzfzMv9P7SKjdzrxSJ2bb+Upxvqtpm0LjuWeCCkThYc9/sCNqO7V2isv6u8c0B65teWfR/wSt5lF65lUrKAPyQxDexegXW0ZeSJBlk2xTKQZSwDIWHJCDLAUy5aCxb492/nHf++6VqhkH29X9Gq1w8BW2xBnTgyJ0OWRUbXiLWK1WHqExlpZ3sOfMjf/X/qCAn0g5/yz/3RWlsifnJS0XBf091u0A/Op8P5vAGL3qXuNIs5Wt4t1aOj8kuE50e+EpRsYhFTgWM3yMedREfdI5fJlBOyDGzvoJNKYIglgUwEuWuoeQnUoneZ1V83XCZ1PDzaxa1VCpkjKqnZpHVGz6TylUEGWfaKINH+6/Sacke/asxbQ9vzHyoxBSnIZBavZ+3/hHeJ9Jx5DeRU0anHnGO+gD8IVmTntiiLJq0FWTfGTJ5Rtb2n3VB/R1lbJqr+tqF0I5uYhOTH0Ygp6BYnticQ+wYaZNmEXYYmTSSmgLBKEFOZxTj8Of9GhYh7WylvGR0dsDttXq8bjQn3LzDPWKSGGGRZpJSNULsvWHap79g3jfnxtP/961kuGmKZG08lZSAHdgCcPTmlENxTS+t1IN3diNNlB1AL6ZKmitcJ7qsfHe+6Qhae/qnl4Kf88s2cgrUMIlp+gpBMJ6ah+bhjdh1thbJscnUfcxnDJ9HxyXRKJqNsM+fgDv7JH5sv4Z8/PNrV+FDT02Ewah0LzPgaUseb98GQZfOWbmlO/AfL6HveqcMnAQ9GQipwcy1ay6zcyj3yueDMrpZrRSL6X71Svm5UY3fZvSFlKQAx6m6/zeTWqcb6hCYRa6T+pvLeQdmpX5vL3mcT0xFsMvLSlDMGibaSWQa8oxNBxldQ+CaOVrqRfeoXEBPOvt4v4WjVUvOo2m41gAX+KLXEXh6CkGUv6xH1v73Esq8b8+PpOasn65aja7egWlcCDZ9IJ+MYlR8Ah0ba+R4xe0TTaTEOOx1Wr8c1Z2c0TI3guNfttxpcGrmljTp4v7rzzO8t+z/llW7kFGQyKRlgwXjiBzfpuhE7UFtxLMPcBnETa/zkdEYBjlmYxarcwj39S8vfR2SNj9QqmclhnSiJBP7+hWbQL9kQgixbMunn98WvZ1nGRFJ/zCcI8wvDJ9EoWYy9H9XX7Gq9VSapq+kW3FPL+LrhPpvd6vH7Q0tPDIo/md1DPVYJV8u9qXp8UlFbIj6zq6XqQy4J2GjUvHgQZgwCXDLRteQYCRhYESybXN3HEo3hk0BMeO4aKgXHqPqQe+KHpsvEjodH5NxapYg9ou4yW40LqlM5v4698LMgyxau4aK28HqWpU8WKMEctXETxeUoOLR4F45ZtoFzaCf//J62B8c722hDQz3WMZMb+NbO+U/uRIy6E4QcGAYdSom5gzFcd6777B+tJe+x8cn0/HjgiATybeBiKXfQimAZZiZjWXpQr7Gcd6j4eHrF+5yz/2t5cKyz5emASmI2DDpsRrfLjsWEL2qvDsuXQZaFRcbFa+QNLJs+ucOmnEl0EEO3ikpKQyo+5Jz+rfnvQ52Cu2pZvU4lNesH7FgASqgLIs4xr1Zlk9Rrqee6LxGeH/+u8cAnvPLNnKJ1TBC7l0ZHf8BEJsqd0ZY5y6ZiwtGsAWQcUryeWb6Fs/8j3olvmq6ShXXnFG30wcEeq8sRjS5jIY0ryLKQ5Fr6g0NgWRZItUhMA05D2OyvYC2jfAvn0A5BzS+ttUXiunPdLc8GlFKT1egOdaPK7w84x7yGIWCgiVha7g3l/SOdf+W1HdjBI+OQibRo8ZNm2uQcZ8otM3peLE+WTQqO/V3Ji6ft+U9d7ipqQRbjwE7en7ltD6u7BLfUYpa2T2jUqsbsVs9SJbcI44iCLAujmIvRVEgsm3IdAi7d6MSTmELPX0MjJCDl73FO/dp0+4BEcF/dJzQaBh12iwfdFgDOaG+8E6xgCkg95A+67L4R5ZiIO0K/2HOR2L7/4/rCbCY5nUFKRUiox8ZEgHpUOqMtT5ZNLDVMPvRkhJCAFGYwD3zKv0Bor/uzWybQGQYdwGVsciMopD3uN3aPJTkAsmxJZJ//l86HZZgzEZo/D58E0rbseZtKTEUqPuAc/7HxaoHw6UmF4I5awtWqO81m3Xxi1N1On1Zl62oa5d9RPTradZUsPP1L88Ed/JKNbGIqkpcACqZM5BGKsp2B5cayqb3seFo+WkWweANr3/b6k983X8YLHx7p4t5Syhp0+kG7L6y1KeffocN3JmRZ+LRclJbmw7LJRTQyWmaCmIYQU8HmQOFaRskGFgi4+5B35ueWO/uk3NvK7na9Re8K1bHWj1pnVgMomKKRWUSsEeRS77US4ZGvBBQcI2cVNS+OCrI8TuXbmLykJZ9sLj+WgYyvCeAvVn4crXAt8+DnvEvk5/QLvR3IcJ/QpFWOWQ1uj9M/F+t7UXp02L4EsixsUi5OQwth2XRwTNUBy1lFzXmHWpjFPPptw/VSIetan4ynG1LYjEPOMZPb7fSHupIS8AVNWqe8ZZRzs/9mhfjEd01VW+vL3mOXbGAVZANntKkY9Yk8QkvKteXAsskNShD5j262FGYxS99l79vGO/lT8/VSEfNqn7xl1DDscDl8oT7NxenVYfkWyLKwyLh4jYSBZRNTTrQUGFrVPHcNiOgsfY996DN+za6W2kLx05PdjQ80ilb96KB9PmnR3H7jiEMpQaMFakGM+mVSx7HvG8q3sAlJ9D1v1+WupoLaw1Nm2tI5o8U8y1BbG8SEx9Hy0M2W4vWs6q8arpCEj4/JuTeUIEWP2GQcQWPCl8Gq2MxDDbJsZm2i8pMwsGy6HTS1SJwB1ulJaQxyKqMwk3nwU/4VSgfjSq+sQWccdvg8AWyxH0xM3rwxMB4IBH3egNsBnNGMg47e58b6O8qbVeLjPzQWr2Xnrwb7D8CrNmPpMwjFMMuwOuGTdXbxiXRSKlL8LuvwF4IbZWLB3+qedoNObR8zgS0dUCc8WmPCwzXOIMvCpeQitRNmlk2migXlWpPB3/Y979TteaeOnIEc+oyPxqjLmx5o5A36AbnFMORw2EIOGAgEglaDu09obHioeXxCfhkvPPFt84GPeeVb2IVrGcQ0kLkU2GjpS+OJFmMsm7Kp0xFCKggIR52TgU19cAf/1E/Nlwgd9490NdzXKCUmi8G1/Bb4ZxlmkGWziBONH4WfZaiZBrYF0sGeACEZjBBSOvgLX/UB9/BngtO/tFwvEiEXe8X1I0P9Vqd9IlJv7up43X6b0a1VjvV1mMRMLbdWeWev9OSvTRUfcIip9Jy3QVq0iVRCmM24iFPO2GNZNvC0AH94JhKN0YrWM0/81HRnv5R9rb+DMdzXYdKpgDnmdS93S+zlLghZ9rIeUf9bhFg2fVuAgjnZpoAkCvgEkLCsfAvnfE7bs3OKdmRI3WmxjLpcYz7gjOadW8EUVFVQdQXNjDagsDY/Hbh3RFrzR8v+7bziLBYlHcRaUSad4IAr3GI5o8UGy6aWAibqzKOhaVnM4ndZFVtBQOW9g7Lmp8Dt2aJ3+TFni9iJCQ/XmIMsC5eSi9ROxFmGuoyTcQyQbwOkewdB42Qcsnd7fc3vLTfKxM/OdAvuaToFo8N9tjFzyAEDgUDQbvEMdFtE7BHuDeWjY/JrFNHJH5oqP+BSMhmgFPYaal48upqGFbWbvroXgdfRzjJsUokDM0pMHJAWJQ2p+pB76ufmKxThgyNd7GtKMVs7oLBYDS6fL7SUAYvUaxflayDLFkXm8H1JxFmG8QKYSBNe48BKwjEKQPZ3VvkmzoFP+TW/tz481tVOH9LILbYQ45+CwYltAZvRPaoGZTqf04cfn5Sf/q25bAsHONaupuWtBitoi1NYINpZhj4ObDUzP56WswrMx0vWs2v+2/L4VBcIQRObjENOu9kDYsI9IZjJ4euS0dISZFm0PIk5XscisWzKApow0yZ2BvLiQIhl6Sb26V3ND6o7+XdVUh5IXWsYdIyZPR53aM5ogUAQjVEf62AOPzklvwhi1Jv2f8Qr2wjqqFPQHTrg2Zs24Tb1ykQ4LL9GKcswlzHgiwdSbJIzkKJ1rPLNnH3beNVfNF7Me/6spruDOTTYY3GFvnw5x54Wc4dBlsXYI1tslqFQI2cyQDLlZHTPMQUkU67Ywqn+suHcH22gYMopRdPjAaXEZB51heqM5vcDnI1q7L3Pjc/pw5xa5cPqrgt57Qd28AqyGflJtNw4KgbQiTrqU5AN04uoY9nETiUoeYVPpuWspuasAonGDu7k/5XX/uBIF++mSszSKkUmnXrMbvGEGqERY909lMuFLAtFrSg4dklYNmEBYfVKsBj1VFDFmoJjlG1mV3/bcKNCzL+n7n1u0A/YHVavz4N6M82hYMpUjLrPExgzeYb7bFKBlnG59yLhOQjnXM8mpzOIKQgJDbqa2BMI67ZAdLEMW+OfqguDA/H5lAzG/o9BDQf6xR4pX2sYcqAB4UG/b/m7jIU04CDLQpJr6Q9eSpZhptCko/nEIn0aveQ9VvU3DVcpwqdYwRSeViO3WPQh22jj4+Muu3d0wK5o0fPvqB8dk18tEJ7Z1XLgU37xu0xCMi0vgYpPBJNc4IyGecYt2Htj6Vk2YYhNhGFgOYFJ6UjpZvbBnbxTPzVfxnc8PNLFu6PqbAJ1wkPNzrT0XXaxrgCybLGUDtP3LD3LshhTMepY6d+CLEbxOlb5Rs7BT/hn/9t6Z7+Ee0fZKzSCbTVPYC5xAlPa+H0gWsBmAjHqKolZyBxhXOm7Xio6+BmflEYH9FxDy0+gg9h4LN/GgmeaS88y9BYmslcn0nLeqQPhsdnMI18LrhR1IBd7RcwRldisU9mteleslBGZeqCL+QKybDHVDsN3RQPLXlp0R5PM4MEgpObH04o3sKq/E1wvFXJqlZ2C0QG5dWJbwOUPdWXH5wkYRxyKNn39bWVtiejYN41VH9SXvccpWseioLYhKR3krUUDoeaflXspWTY9JhyHFGQzitYxS9axqt6vP/lD840KMet6n7x51Kx1ojFkc4gdC0P/iuEmIMti7OFFI8twCCEFxD/lJ9DIGWBydOgz/tnfWm8US+rO9DQ+BDHq+kGH1+0PVWu3y2fUOlUyM6hod0P16Jj8CqXjxA+NZZvZ+CQ6cFBYQ8UnojU655sWbQlYhs2LsURjyRPV4Ilp9LItYOXxMqHjUTUoIwJiwkUgJnweuoWq8/I4HrIsxp5j1LEMmyJN+aPhEEomQk5HSMmM4iz2kc8brhYKkcu9nQ2jxiGHG/WBmmuQc3A84A/6PAGPy+8a85m1rj6hUXBfdfeQ9Pj3jUXZrPx4en48nQBqg86/3vASsCwLRDiAHxwC0vzG0QiJ9NL32Md+aLhRKeLfU/V1GPUaUEbE7QBlRECWHmiTzWGYQpbNQaRoOiQ6WTaxEj9RYQDUZNr977qct8G6z+EvBRdJz5+eUjQ9GOjkj6rRgikOm3ceuQBtJne/xNjybODJCfml/I4T3zUd+IRfvoVTkM2cCLRORfMIhRIwsJgsw4JeCSkgIJyUgRSuY5ZvBouMp35ovkISPjrR1fBQ3S822UwhR1NEUw9dsmuBLFsy6ef3xdHLshcG2kTBFFDSHMcoeY+19yMQo37ml5YbJWL6xZ4O1tBwn9XjCnnK6fVM1FFXikxilpZzXXl3PwjqrPyQS0gG9dvz4qlEFGfA6pms3/HS6t4/9goWj2VTk0o0SIuUgZRv5Zz6tfneAVn9DaWIOdLXYdQqx2xYrb/5dY6VfRZkWYw9/yhn2UvgmHJeTwWWGjEZAXXUc1ofn+pqpw0NKqxWvdtp83qcaB31uU2jgD+aH0RB2S3eAbmlpW7g0cmu87tb922rL8pmFWQyCtAZHFaoBVTqfJMzWmRZ9nJMOAW45oGw8JL17P2f8M78DuqEt1EHB0EopdvjmsxbPTcpYqzjRv5yIcsir3FYvyFmWIa5TaFxSPhkEDGeGwf81/durz/9a3NtkejZqe6Ge5rOhtGhXuuY2R1qgc7g+PgYGqMu4Wl5t1VPjiuuUUSnfm7a+zG3cC0TJLxfBfZVJwqmzOyMFkGWoSgnojHh+Wj1FjIO0PzkT01XKcKHR7s4tUoxRzvUY7VbQs4KF9Y+tUwagyyLsQcZMyybnM1h5exIGRP+ExQcoyibVfIue+8HvLO/tT460dVKG9QoLA5baGnRgsFxnzfgsvtsBrdh0DHQaelAhp+clp/Laa3axiUmIzn/oeahadFeZOKevKTpxmOkWAZW98EeCAGt6A5SJ6UhZZvZNb+3PD4lb3020NthHEWTvmIL/PNYPYyxjhv5y4Usi7zGYf2GmGPZBDhQMw3EGKKZ6fe8DdwpSjeCsX2/Wsa/p+pqGB3qthmHnaBMZ+hJBL1u/6jGLmQNPzuvuEIRHv+mae9WXukGduFkHXVCKuq6AbZZJ53RJi8pZzU1P55+7OtGxqW+fjFIxzpTVGnAF+xuNdwok5S/zwGIRMO5wEx2GiUxr1dQtj0VxCcUZjNBcpGPece/a7pIeP7sjELIGh7sBbYY5FdYR8Y4ZFl49Yx4azHNsok66sn0/ARQvZGCY1Ru5R79uuHcH63Xi0XPznS31g2qZGhCwdDzcLnsPhCj3mHsoA9zrinvH+o8v7tt/6f1BWsZWI21vLhpU87JWWcY7DIMjlhCkUwGmFQmTMypSenI/k/q/8ptu3+4k31d2YGM9AlNoxq73eJZyYnGIjRIIMsiJGykmo1Vlk1ZLlOB02BfjwEKpqQi5HQGqB70dcPtfZL/v70zf2vqyv94/5bvM53nO9/nmRlbRNlBoVo7rdZpO63dZ7qObacqJCRBFqVuuBWtW+1UtGBRO1pbkewBEnYEEtaw72HJHrLfe/k+5wZcOoIsl5ucm49PfpAk95zP/XzeeT3n3HM+n1N9e7CnyWQac3mc/tn06cXlqFMkRfgprwvV4zb02VvV4+Lvuv7Nv3d0hyY7RSmIlgmiUfEcNC6jH8kHBlMMsCww1pt7zD97R/HyzI2KQ69UfM+/J7nUrS0zjPXanTYf4SMJPzrsfanPB1dLTxxqF1iGWTCxZ1kAaoH5XSI95aTr1vOiJNmblac+qL6aoy290FV1a6hNMzmit1mn3GiBbylRoijK7fRPDk+3V02UF/f/fLLjirD57Md1ea+pc55XChNl/LniRUL6sE40x1wvzX9/UXPM7npj8f6Wr7aV0SUqUQYVOieBPoEFnWccLc3epMx7XX3mk9rLgiZUouf6QHv1pGHAvoxzEpZy0/BdmGPipgGOsIwmWiBHPcACQbw0IwnlqB/YVn78rcrzn9dfO9iivjHQqzVZJpacx0MQKEfdZqQPTGk2N8sNyit9hVnaY29pMlMU/GhpKspRR5W40eEpzy6ZZbnbygIH4iGWxaO9r6lrxbv+VCqIkR3dofkhq0l6qbtZYRhqs04NO21Gj3vaB/UtVvunBuOy1fYww+1ziWUPHpkHdqLFy1DFm0hUIDtrk+LY25VX9+kqivvbNBPDndbZZQE3QSzxdCGPy28yuHqajOXF/UU52tMf1Rx+Vb1viyozWZGxQS6Ile76c2nqs5Kv366Wfd8z9+z/8VXzCT/VVWf8cZ9u/4sqtJgQJxXGy/ZulOc8r8zZrMrdUnbizaqiLK3qam9H7aR5wgVP9xlW/4LNAcsWdE/ofchNltEbXOlKqvSyQLREmCDL2aI89mblxX81XMttQbNO+hz1qdHpZdS98boJy4RroNXSJDeoilDp2iuipvwP6Bz1KMlnT5f86+m7R/9aKf0WscyG1jHnZZm+1liYqc3apEQHia4p5UdJcl9S5X9QVZDeeOtou+pyf6NkrE9rMo4tJ5c+9OSGk0XAMpyiNTMzw1mWBfbrz+aoB1Kv5aJ4WUaCfP+WshPvoqRO6aXu9uqJyaFpp80bOEp9MUnX91MFvG5i2uqbGKRrPd4cuJHXeurD6qznlLv+r3T378XHti+aZVna7M3KPRHitAhJVjJ6xnftkK7ien93g9E47HSYZ48RQTnh8I9FDwDLWHQ2E11xmWX31zoR12TCeBk6R31Nado6yd4Ued4O9fe8eyVn9NW3htrQgSkW45jT7fQvdUHQ7yctEy6Uo14yfOcbfQGv6fjfKg9uqfj20wbVD319OpNl/oq4JEF13zNdP9Sat0N9cHtF/rvVl1Ibb+ejnPCeZqPN5KEAX0yIfHltAMuW57egXRU2LEMn2gnipPxo9GRdlCTL2qw4sLXs+I7KCzvri3N10oIebblhcngala5dyj+KmvG60b6NyaFpVLpWbhBf6L6Wq7t9sqP216E+ndk8Pu9SA0lQAy2WkvP679Pv/ZirU17ua5SMdTcYDb12m8kz3w7bpVgH312+B4Bly/ddUK4MF5Y9NEZDWVD0ciFaGYiQiOLlh1+ruJjaUHJerysbN/Q4bJMep82HzlH3k4sZGVHUTGA0R5GUw+ztbjTWlAzVlAy1VU0M6630aVKP5yNJUmO99spbg3cv6qtuDw60WayTbnof3FJHh0HRDsc7BZZhFuDwYtlc3R46YQAV2whkjGemKA6/XnHus7pr+1uk53tqbg23V06MdNscFu9SoUKSlGXSNaS3DnZYDP1287jLZfcR/sfPFSlqxjbl6dWa2qomBtstUGgspH48wLKQCseTjQkvlt0fndG76lGCOl3jP2ODPDNFkZWizHlOlfdXzcUvG3453VF7d2hYb3U56CqPj2fRY9xLUZTPQ7gcPpfD53H6fR6CWPARnN9LOm0+h9nrsqOj82DXxWN8GqS3gGVBcvxyuw1Tlt2H2lx5MkGcNC1SvOuPpWkRktwXy859Xvufo62anwY7q6dG9LMHpsADrOWqDMvrgGWYhS3cWfZIWbTZA1MykuRfbS078XYlfWCKTnyhu750pK/FZDO5MYsumLsCDwDLVuC8YFwa7ix7dICGssSTUIK6IBadoy6IkWU/pzr1QfWNvBbNzYE+rclu8vi9JOGnM7rhEJBgKJa1PoFlrLmamY6AZQ8yn5Lle5PRrlpBvIwfhTIidz9Tylsv2feC6vRH1UXZzaUXumpvD3dUTQ3rreZxl8flZyYG0EpIegBYFpJhmd8oYNkDls2N0dDQDBWrQPvRBPGoqk/OZtWBbeXH3tCc/bT22oGWiuv9nQ1TxjGn3/f4zRbz+xs+wcYDwDJsQhUwFFj23yx75J0NaMrJj0IbONIixcIE2dEd6qJ9zYrC3paK8ZEum3XCjTajLeXAFMwkEq7mAsswizyw7BFyzQ3N0Jtzm9GEgSr76yWpkWJ+lASV3HhT8+2X9cW5LXfPdVX/PNTVYJwcnoaCYphJ/0nmAsue5KEQ+xxYNi/L7nNttsQrKpSIXgkoQT0zWbH/BdXRHZpL/EZZQU9b5cR4v91p95F0ncfFZAuEmBDAnN96AFj2W4+E+N/Asiez7GGoJckEsfR8c604bb1ElCQ7/FrFJT46R73q5mCremKo3WoyuNzTqB43EC3Exb+wecCyhf0Tcp8Cy5bAskBZtES0JpAei17CBFlWiuLAS+Un3qw6/1l9UY5W/F23rnx8YsjhmvYRS6vFHXLaCHODgGWYCQBYtjSWPTRGozejIa7xIiW8SIkoQf7VtrJzn9fdOaPXKg2jXTaHyYMWOhed/4SZdLhuLrAMswgDy5bJMhpqgTpCaZF0jvp6iWgDfZD4B7XFmS1ll/t76k3WSbfXQwQeomGmjLA3F1iGmQSAZSth2WyeAJ2jPnu+XKJcuF6WHae6+HGD5sfBYb3VYfXCNjTMfhW0ucAyzKIGLFsRy+5POQP/2SDjR0k+/13JF/9zN2+rRnK+u1drWuDccsy0EmbmAsswCziwjFGWydNjpP/6w90v/1B67NVKybfAMsx+Dg+bCyx72BsY/B9YxiTLNqLkJ1TfMVKS/261/FLv3JlyBAZSABMf9QCw7FF/hPxfwDLmWbZWzF/cueUhr46wNhBYhln4gWXMsyxiseeWY6aVMDMXWIZZwIFlq8KyddL896rlBTDHxOzn8LC5wLKHvYHB/4FlwDIMZBoME4FlwfD6CvoElgHLViAfLl8KLMMsusAyYBlmkmXLXGAZW55mqB9gGbCMISlxrRlgGWYRBZYByzCTLFvmAsvY8jRD/QDLgGUMSYlrzQDLMIsosAxYhplk2TIXWMaWpxnqB1gGLGNISlxrBliGWUSBZcAyzCTLlrnAMrY8zVA/wDJgGUNS4lozwDLMIgosA5ZhJlm2zAWWseVphvoBlgHLGJIS15oBlmEWUWAZsAwzybJlLrCMLU8z1A+wDFjGkJS41gywDLOIAsuAZZhJli1zgWVseZqhfoBlwDKGpMS1ZoBlmEUUWAZTXU7VAAAQQ0lEQVQsw0yybJkLLGPL0wz1AywDljEkJa41AyzDLKLAMmAZZpJly1xgGVueZqgfYBmwjCEpca0ZYBlmEQWWAcswkyxb5gLL2PI0Q/0Ay4BlDEmJa80AyzCLKLAMWIaZZNkyF1jGlqcZ6gdYBixjSEpcawZYhllEgWXAMswky5a5wDK2PM1QP8AyYBlDUuJaM8AyzCIKLAOWYSZZtswFlrHlaYb6AZYByxiSEteaAZZhFlFgGbAMM8myZS6wjC1PM9QPsAxYxpCUuNYMsAyziALLgGWYSZYtc4FlbHmaoX6AZcAyhqTEtWaAZZhFFFgGLMNMsmyZCyxjy9MM9QMsA5YxJCWuNQMswyyiwDJgGWaSZctcYBlbnmaoH2AZsIwhKXGtGWAZZhEFlgHLMJMsW+YCy9jyNEP9AMuAZQxJiWvNAMswiyiwDFiGmWTZMhdYxpanGeoHWAYsY0hKXGsGWIZZRIFlwDLMJMuWucAytjzNUD/AMmAZQ1LiWjPAMswiCiwDlmEmWbbMBZax5WmG+gGWAcsYkhLXmgGWYRZRYBmwDDPJsmUusIwtTzPUD7AMWMaQlLjWDLAMs4gCy4BlmEmWLXOBZWx5mqF+gGXAMoakxLVmgGWYRRRYBizDTLJsmQssY8vTDPXzCMver+atl+6JEAsTZMz+wsOnNWGCbE+EmLdOmv9etbygt09nthrdPi/BULigGfY8ACxjz9eM9PQblvGBZRvlKyEvsIwRWYZCI8CyUIjCEmx4wLJLPV+/U50WIdm9plQQD+OyZRINWLYE8YX2V4FloR2f/7IuwLLeZpPkQnfeds0XT9/9/PclvPUSUeIczpKX+ateyegG32uBZf8lMVzfAJZhFjmfl7SZ3H06s/TbnmPbK7/8XekXT5fw10uEiTLRhjmcrWzahS+YlmE5sAyzH8D85gLL5vdNSH5C+Emn3TvWa6+9NfxDmvbwX9TZG5RZKYqMjXJhgiw9ViqIk6Ix2gYYnS3KA8CykJT5cowCli3Ha0G8hiIpv490WLxDbdaGX0ZL8vUFvMbj71Rmb1HyY6R7nhGnRojTY6WiJBijAcuCqNMgdA0sC4LTV94lSVBuh9846uy+Zywr7ivMaf7671X7X1CJYuWCaKkoQZaRhIZmIvoFY7QF5p4wLlu5GkOkBWBZiARiyWZQFOX1EJZJV2+zqfqXobvn9Fezded31h97Q7PvBZUoUcaPkfKiJPwYqTBBJoIp5zzPEIFlS1ZeqF4ALAvVyDzJLoqaIQmEs2mr1zjqHGyz6MoMZVf7ir/SnXy/KnuzMj1GmhYpSYuUoCknPEEDlj1JUbh/DizDPYKz9ns9hGnc2as1Vd4cvH6o9dzOuqNvaHJfLMtKUWYkoWWBwEuEljsX9SBpgXkZlz6CcRlHfgAzM8AyzoRyxuv2Wybdw53W1oqJyp8GS87qi7K133xcs/8lVXqsNDVSnLZOwo+SCgMba5PlGbATjV78hRwmbvwGgGXciOMMmnLSS5w+D+Ge9psNrl6tqebO0K2T7ac/rsnZohLGywQx6IWSN2FoNjflhHEZR34AMC7jTCB/cyMURdlMnsEOyz3paOmFrsJM7fmddSferjywrTwzWZEeK+VHS9JjpII4mTCQMBCuYzRg2W+Ug++fMC7DN3ZPsNznJRwWtCww3Glrr5zU/Gfw56/bL+6uP/ByOS9KuntNaWqEmLdeIoijn6CF65QTWPYEGeHzMbAMn1gt3VKKmr3G4/SP9toa5aMl5/UXdzUc2l6Rlazcm6TISJSLEtDQTJQkEyXJw3DuCSxbuqxC9ApgWYgGhnGz6MwnW3vVZOV/hkq+6bqapTu3sy7vdXVmiiJtnQQ9/46SCOLnEgbCZpgGLGNcacFqEFgWLM+z3S/hJz1O/7TFaxl3j3XZdSqD+LuuAuG9I6+pBdGyPc+g+aYwwLJwWhkAlrEtxFXrD1i2aq4N4YYJPzU1Mt2qGVf80PPjPt2ZD2rzXlF/9VJZzvPKjI1yQTydox5PTzy5zjVgWQjrdGmmAcuW5i/OfNvjROmcA62W1oqJajTr1F9Kbzz+jiZrM5py7l5TmhYpflByg7tTTmAZZyQNLONMKJd2IxRJEX4KbUZz+C0GV1e9Uf5Dz5XMphPvVGanKAXRMkEMynyi1wTohU6ODtCAZUvTTQh/G1gWwsFhyzSSoMzjLn39lObmwK+nOwsztGc/QcsCOS8oRUkyfrQEJQzESNFONM4RDVjGlspWvR9g2aq7OPQ7QCU33ITd7JkYnO7XmXWqcWVhX1GO9sR7ldnPK/nrJXvWiNMiJSj5iXNl0YBloa/PRVoILFuko8LiaxRJoaTOCVdPk6n8en/xAd3ZnXV5r2r2bVZlJSv2bpRnbECb0VARIa7kqAPLOKNsYBlnQsnYjdBl0dwDbRatyqC+NlDyjb4oU3v6w5rcrWWiJBkvCtUR4kVJuJHXCSxjTDfBbghYFuwIhFj/gRx1wkd63agy2tSws09rrisZuXm87fQnCGcZSXJ+lDQ9GtXbQJW4N+CdLQAsCzEBLt8cYNnyfRcOVxJ+0m72DOutDZLRknP6wiztuZ11x9+szH2xLGODHOWox0jRgSmIa1iWRQOWcUbGwDLOhHJVboSiZnxeeoA2gjaj6crGK6713zrRfu7zun1/UfGiJalr6bJo0fQq50b8aqIBy1ZFN8FoFFgWDK/j1SeFiqPNzKCS3HazZ6jTek82+supjrM76w5uL8/ZrMrcqMig89LRUSlJ9AufiSewDC8xLmAtsGwB58BHv/UASVIOi2e019aqnqgoHvglv7MwE806j9A56jx6JxovCp0wgEtZNGDZb2OM7d/AMmxDFwzDKQqdzul2+qetXrPBNdhmRbUeL+ovpd879Eq5IF6atk7CWy/hR6PDn7A4FgBYFgwdrUqfwLJVcWuYNOp1E4Z+u67CIL/cU5Sl/eajmry/ab56qTz7OaUoUS6Ikwri0QBtdrlzrix1SDEOWMYZrQLLOBPKINwIRVFOh29qZHqgxdJaPlF5Y/DXU50FgsYT71ZmpihS14r3RJTyox8tixZiRAOWBUE3q9MlsGx1/Boerc5uRvOTfi8qjmYadXbUTCoKe4tymo+/WZm5QSGIRRkCgT1oaFkg9NYEgGWckSqwjDOhDP6N+H2kccypr5+q+nno11OdPwibz35ad+wtTe5WlShJzluHctQDywKzZ3SGwIEpwLLg64YhC4BlDDkSmpmZQemcLsJu8kwOTg+2WlvLJpSFfVdztfkfVmdvUqY+I9n9p1LeuoemnCEw3wSWcUa5wDLOhDKEboSiKMJH2o2eniZTxY3+G0daz35Sd2irOjtZlZms2JssFyXNnaMeyIIKHtSAZSGkm5WZAixbmf/g6vk94PeRlsm5HPXigTv5+ivC5vx/VOVuUwkTZalrxakRYn40qvg4WxYtGFNOYNn8AcTsE2AZZgHDyFxUutZHelx+h9lrHHH26yw1vwxdP9Jy+pPq/S+qBDGytLXovOH7iwNB2asBLMNIUQubCixb2D/wKTMeIElq2uYd7LDU3hn+9UznFVHzmQ9r817V7P+Lam+KXJiATkuZy1FndZMtsIyZAIdAK8CyEAhCeJjg95HTVu/E4HRvs6lZbigr6v/pSNuZT2v3b1UJEmRp61CaOj+a7bJowDLOqA9YxplQhvyN0AnqFDXjdRPWKfdQh7W+dOTmifazn9Udfk2ds1m1N0khSpRnoBPUAy96P9oqLwsAy0JeN4s1EFi2WE/B9xj0AOEnHRbPSLdNWzauutp/++sOlKP+z7rDr1bs3Sjnx6CkTnSOepwU7URbzRPtgGUMhjW4TQHLguv/MO2dImdz1B1m7+TQdJ/WfE86Kr7Y9V1qw4GXy4UJMn6UhLeOXhlY5dNSgGWckSCwjDOhxPhGXA6fod/eqh6X/rv7SkbzNx/VHH1dk/tiWWaKAi0LxEkFcajwxoPdG8xNPIFlGOvmUdOBZY/6A/4KhgcIgnTafYF9G1rleEXxwO38jkvpjXlvqAVxst3PlO55FlWvTY+VopIbjE45gWXBCPiq9AksWxW3QqNL8sBcjjraj+Z2+CcGHa1VE4rC3oL0xoPbKoRxckGMTBgro09LYfioFGDZkiIVyl8GloVydMLUNq+bmByZ7qyf0twYvHW0o4DXdObj2qM7NPteUAnj0aF2gTpCD85RX0HCALCMMyIDlnEmlNy5EZKg3E6/zeiZGnYOtVl1qnHFld4fc7Vf/71q70ZFaoQ4da0Y1dtIkK283gawjDO6AZZxJpScvRG7ydPdZFT/1H/9YMvpf9QceKl83xZVzvPKzBQFylGPp89RX26OOrCMM7oBlnEmlJy9EcJPWiZdA23mZoWhrLD/9omOK6Km0x9XH3i5TBAr270G5ainxyxzmAYs44xugGWcCSVnb2R2M9q032HyTg05expNlTcHfjrWcubTmpxNqrRnJWkREkEsylFfxsECwDLO6AZYxplQhsWNoDM6TZ7+FnNtydCdM52XeU2n3q058oo6d2tZ1ia0GY0fjY5Sp1c850oJLbgZDVjGGd0AyzgTynC5Eb+XtJs94wOO3iZTswzNOn860nrui7qDr5YL42W7/yzevaaUH4Vy1EUb6JIbC65yAss4oxtgGWdCGTY3Qp+jThKz9biH9bZ68cjPp9sv7m448oo6M1EpjJGJ6CSB+znqs7UeHzdAA5ZxRjfAMs6EMhxvJFAWbaTbpisfLy+mlwXSm9Fa5/byvclyfow0LRLldaIc9XnyOoFlnNENsIwzoQzHG7l/jrrN6JkYcPQ2m++JR++c6bzwZd2B7eWiBFlahCSwyjlfLiewjDO6AZZxJpThfiMkQTntvvEBh1ZluHtef1nUdPofNYe3q/dtRgemZCSh6rWCwGa0+ycMbERv7okQ89ZJ89+rlhf09unMVqPb5yXC3ZsY3j+wDMOggcnzeIAgSJfDNzk83dNoapSOqQr7bh1v/3fqvbzX1WjKGS1JjRSnRc7lqNOPz4SJwLJ5vInb28Ay3CIG9s7vAZSjTlCEn/J5CLvZM9pja9WMywp6UMmN19XZm5SieHl6jFQQFygfhDZtwLhsfndi9gmwDLOAgbmL94Br2jc57Oisnay4NvDziY7LwqYzn9Tm/U2dvVkpiJPyoyX8aClvvWTXGnQCcf77MMdcvGtD8ZtPURRdhj0UbQObwAMr8gDhJwM56pODqHRto2xMVtBTlKM99pZGlChLo+ebqRHiL/9YyosElq3I1cG9mKIokiSfIggCcBbcSEDvLHjA5yWNY059w1T59f6r+7T571cdfBnlqGckyvesEac9Kzn5dpXs+x549s9CLJjtgqIogiDcbs9TbreHIEjAGbP+hdZC0AMet99kcA60WlCOelH/7ZMdl0VNJ9+tEkbJdv1v6ZFtavH57l6tCdYxQzB285kUGJG53R6z2fKUzWb3eLwEQc73bXgfPMAND5AE5fOSHqffZfeZx1w9TSbNrYFrB1sOb1Xz/yw9uq1ScqG7T2e2mdw+L/wc8Ig5QZBer9dmsw8Pj/0/3G2tQSTgZc4AAAAASUVORK5CYII=;" vertex="1" parent="1">
          <mxGeometry x="-330" y="247.5" width="51.13" height="50" as="geometry" />
        </mxCell>
        <mxCell id="r4pAyAyqcV2ajWgkFm0Q-112" value="devops" style="sketch=0;outlineConnect=0;fontColor=#232F3E;gradientColor=none;fillColor=#232F3D;strokeColor=none;dashed=0;verticalLabelPosition=bottom;verticalAlign=top;align=center;html=1;fontSize=12;fontStyle=0;aspect=fixed;pointerEvents=1;shape=mxgraph.aws4.git_repository;" vertex="1" parent="1">
          <mxGeometry x="-200" y="242.5" width="46.15" height="60" as="geometry" />
        </mxCell>
        <mxCell id="r4pAyAyqcV2ajWgkFm0Q-142" value="" style="rounded=0;whiteSpace=wrap;html=1;" vertex="1" parent="1">
          <mxGeometry x="-100" y="125" width="90" height="325" as="geometry" />
        </mxCell>
        <mxCell id="r4pAyAyqcV2ajWgkFm0Q-130" style="edgeStyle=orthogonalEdgeStyle;rounded=0;orthogonalLoop=1;jettySize=auto;html=1;" edge="1" parent="1" source="r4pAyAyqcV2ajWgkFm0Q-114">
          <mxGeometry relative="1" as="geometry">
            <mxPoint x="40" y="237.5" as="targetPoint" />
          </mxGeometry>
        </mxCell>
        <mxCell id="r4pAyAyqcV2ajWgkFm0Q-114" value="task-runner" style="sketch=0;outlineConnect=0;fontColor=#232F3E;gradientColor=none;fillColor=#232F3D;strokeColor=none;dashed=0;verticalLabelPosition=bottom;verticalAlign=top;align=center;html=1;fontSize=12;fontStyle=0;aspect=fixed;pointerEvents=1;shape=mxgraph.aws4.git_repository;" vertex="1" parent="1">
          <mxGeometry x="-75.85000000000002" y="217.5" width="30.77" height="40" as="geometry" />
        </mxCell>
        <mxCell id="r4pAyAyqcV2ajWgkFm0Q-140" style="edgeStyle=orthogonalEdgeStyle;rounded=0;orthogonalLoop=1;jettySize=auto;html=1;" edge="1" parent="1" source="r4pAyAyqcV2ajWgkFm0Q-115">
          <mxGeometry relative="1" as="geometry">
            <mxPoint x="40" y="320" as="targetPoint" />
          </mxGeometry>
        </mxCell>
        <mxCell id="r4pAyAyqcV2ajWgkFm0Q-115" value="api" style="sketch=0;outlineConnect=0;fontColor=#232F3E;gradientColor=none;fillColor=#232F3D;strokeColor=none;dashed=0;verticalLabelPosition=bottom;verticalAlign=top;align=center;html=1;fontSize=12;fontStyle=0;aspect=fixed;pointerEvents=1;shape=mxgraph.aws4.git_repository;" vertex="1" parent="1">
          <mxGeometry x="-74.85000000000001" y="300.6499999999999" width="29.77" height="38.7" as="geometry" />
        </mxCell>
        <mxCell id="r4pAyAyqcV2ajWgkFm0Q-116" value="frontend" style="sketch=0;outlineConnect=0;fontColor=#232F3E;gradientColor=none;fillColor=#232F3D;strokeColor=none;dashed=0;verticalLabelPosition=bottom;verticalAlign=top;align=center;html=1;fontSize=12;fontStyle=0;aspect=fixed;pointerEvents=1;shape=mxgraph.aws4.git_repository;" vertex="1" parent="1">
          <mxGeometry x="-72.31" y="367.5" width="34.61" height="45" as="geometry" />
        </mxCell>
        <mxCell id="r4pAyAyqcV2ajWgkFm0Q-125" value="terraform" style="sketch=0;outlineConnect=0;fontColor=#232F3E;gradientColor=none;fillColor=#232F3D;strokeColor=none;dashed=0;verticalLabelPosition=bottom;verticalAlign=top;align=center;html=1;fontSize=12;fontStyle=0;aspect=fixed;pointerEvents=1;shape=mxgraph.aws4.git_repository;" vertex="1" parent="1">
          <mxGeometry x="-73.85" y="140" width="30" height="39" as="geometry" />
        </mxCell>
        <mxCell id="r4pAyAyqcV2ajWgkFm0Q-128" value="rolling deployment" style="sketch=0;outlineConnect=0;fontColor=#232F3E;gradientColor=none;strokeColor=#ffffff;fillColor=#232F3E;dashed=0;verticalLabelPosition=middle;verticalAlign=bottom;align=center;html=1;whiteSpace=wrap;fontSize=10;fontStyle=1;spacing=3;shape=mxgraph.aws4.productIcon;prIcon=mxgraph.aws4.codedeploy;" vertex="1" parent="1">
          <mxGeometry x="50" y="217.5" width="40" height="77" as="geometry" />
        </mxCell>
        <mxCell id="r4pAyAyqcV2ajWgkFm0Q-131" style="edgeStyle=orthogonalEdgeStyle;rounded=0;orthogonalLoop=1;jettySize=auto;html=1;entryX=0;entryY=0.345;entryDx=0;entryDy=0;entryPerimeter=0;" edge="1" parent="1" source="r4pAyAyqcV2ajWgkFm0Q-128" target="r4pAyAyqcV2ajWgkFm0Q-6">
          <mxGeometry relative="1" as="geometry">
            <Array as="points">
              <mxPoint x="180" y="240" />
            </Array>
          </mxGeometry>
        </mxCell>
        <mxCell id="r4pAyAyqcV2ajWgkFm0Q-132" value="ECR Registry" style="outlineConnect=0;dashed=0;verticalLabelPosition=bottom;verticalAlign=top;align=center;html=1;shape=mxgraph.aws3.ecr_registry;fillColor=#F58534;gradientColor=none;" vertex="1" parent="1">
          <mxGeometry x="760" y="222.25" width="70" height="67.5" as="geometry" />
        </mxCell>
        <mxCell id="r4pAyAyqcV2ajWgkFm0Q-174" value="" style="rounded=0;whiteSpace=wrap;html=1;fillColor=none;" vertex="1" parent="1">
          <mxGeometry x="-420" y="-390" width="610" height="430" as="geometry" />
        </mxCell>
        <mxCell id="r4pAyAyqcV2ajWgkFm0Q-134" style="edgeStyle=orthogonalEdgeStyle;rounded=0;orthogonalLoop=1;jettySize=auto;html=1;entryX=-0.006;entryY=0.155;entryDx=0;entryDy=0;entryPerimeter=0;" edge="1" parent="1" source="r4pAyAyqcV2ajWgkFm0Q-125" target="r4pAyAyqcV2ajWgkFm0Q-6">
          <mxGeometry relative="1" as="geometry" />
        </mxCell>
        <mxCell id="r4pAyAyqcV2ajWgkFm0Q-135" value="apply state" style="edgeLabel;html=1;align=center;verticalAlign=middle;resizable=0;points=[];" vertex="1" connectable="0" parent="r4pAyAyqcV2ajWgkFm0Q-134">
          <mxGeometry x="-0.1113" y="2" relative="1" as="geometry">
            <mxPoint as="offset" />
          </mxGeometry>
        </mxCell>
        <mxCell id="r4pAyAyqcV2ajWgkFm0Q-137" value="blue/green&lt;div&gt;deployment&lt;/div&gt;" style="sketch=0;outlineConnect=0;fontColor=#232F3E;gradientColor=none;strokeColor=#ffffff;fillColor=#232F3E;dashed=0;verticalLabelPosition=middle;verticalAlign=bottom;align=center;html=1;whiteSpace=wrap;fontSize=10;fontStyle=1;spacing=3;shape=mxgraph.aws4.productIcon;prIcon=mxgraph.aws4.codedeploy;" vertex="1" parent="1">
          <mxGeometry x="50" y="300" width="40" height="77" as="geometry" />
        </mxCell>
        <mxCell id="r4pAyAyqcV2ajWgkFm0Q-141" style="edgeStyle=orthogonalEdgeStyle;rounded=0;orthogonalLoop=1;jettySize=auto;html=1;entryX=-0.004;entryY=0.467;entryDx=0;entryDy=0;entryPerimeter=0;exitX=1;exitY=0.236;exitDx=0;exitDy=0;exitPerimeter=0;" edge="1" parent="1" source="r4pAyAyqcV2ajWgkFm0Q-137" target="r4pAyAyqcV2ajWgkFm0Q-6">
          <mxGeometry relative="1" as="geometry" />
        </mxCell>
        <mxCell id="r4pAyAyqcV2ajWgkFm0Q-145" style="edgeStyle=orthogonalEdgeStyle;rounded=0;orthogonalLoop=1;jettySize=auto;html=1;entryX=0.019;entryY=0.452;entryDx=0;entryDy=0;entryPerimeter=0;" edge="1" parent="1" source="r4pAyAyqcV2ajWgkFm0Q-112" target="r4pAyAyqcV2ajWgkFm0Q-142">
          <mxGeometry relative="1" as="geometry" />
        </mxCell>
        <mxCell id="r4pAyAyqcV2ajWgkFm0Q-146" value="dev&lt;div&gt;stage&lt;/div&gt;&lt;div&gt;prod&lt;/div&gt;" style="edgeLabel;html=1;align=center;verticalAlign=middle;resizable=0;points=[];" vertex="1" connectable="0" parent="r4pAyAyqcV2ajWgkFm0Q-145">
          <mxGeometry x="-0.3475" relative="1" as="geometry">
            <mxPoint as="offset" />
          </mxGeometry>
        </mxCell>
        <mxCell id="r4pAyAyqcV2ajWgkFm0Q-147" value="github environments" style="text;html=1;align=center;verticalAlign=middle;resizable=0;points=[];autosize=1;strokeColor=none;fillColor=none;fontSize=17;" vertex="1" parent="1">
          <mxGeometry x="-145" y="95" width="180" height="30" as="geometry" />
        </mxCell>
        <mxCell id="r4pAyAyqcV2ajWgkFm0Q-148" style="edgeStyle=orthogonalEdgeStyle;rounded=0;orthogonalLoop=1;jettySize=auto;html=1;entryX=0;entryY=0.608;entryDx=0;entryDy=0;entryPerimeter=0;" edge="1" parent="1" source="r4pAyAyqcV2ajWgkFm0Q-116" target="r4pAyAyqcV2ajWgkFm0Q-6">
          <mxGeometry relative="1" as="geometry" />
        </mxCell>
        <mxCell id="r4pAyAyqcV2ajWgkFm0Q-177" style="edgeStyle=orthogonalEdgeStyle;rounded=0;orthogonalLoop=1;jettySize=auto;html=1;" edge="1" parent="1" source="r4pAyAyqcV2ajWgkFm0Q-149" target="r4pAyAyqcV2ajWgkFm0Q-169">
          <mxGeometry relative="1" as="geometry">
            <Array as="points">
              <mxPoint x="-145" y="-314" />
            </Array>
          </mxGeometry>
        </mxCell>
        <mxCell id="r4pAyAyqcV2ajWgkFm0Q-178" value="collect workflow metrics" style="edgeLabel;html=1;align=center;verticalAlign=middle;resizable=0;points=[];" vertex="1" connectable="0" parent="r4pAyAyqcV2ajWgkFm0Q-177">
          <mxGeometry x="0.2665" y="1" relative="1" as="geometry">
            <mxPoint x="-1" y="8" as="offset" />
          </mxGeometry>
        </mxCell>
        <mxCell id="r4pAyAyqcV2ajWgkFm0Q-149" value="grafana" style="image;aspect=fixed;html=1;points=[];align=center;fontSize=12;image=img/lib/azure2/other/Grafana.svg;" vertex="1" parent="1">
          <mxGeometry x="-240" y="-340" width="68" height="52.800000000000004" as="geometry" />
        </mxCell>
        <mxCell id="r4pAyAyqcV2ajWgkFm0Q-166" style="edgeStyle=orthogonalEdgeStyle;rounded=0;orthogonalLoop=1;jettySize=auto;html=1;" edge="1" parent="1" source="r4pAyAyqcV2ajWgkFm0Q-150">
          <mxGeometry relative="1" as="geometry">
            <mxPoint x="-160" y="-25" as="targetPoint" />
          </mxGeometry>
        </mxCell>
        <mxCell id="r4pAyAyqcV2ajWgkFm0Q-150" value="" style="points=[];aspect=fixed;html=1;align=center;shadow=0;dashed=0;fillColor=#FF6A00;strokeColor=none;shape=mxgraph.alibaba_cloud.hcs-sgw_hybrid_cloud_storage_gateway;" vertex="1" parent="1">
          <mxGeometry x="-336.39" y="-50" width="63.91" height="50" as="geometry" />
        </mxCell>
        <mxCell id="r4pAyAyqcV2ajWgkFm0Q-153" value="github events webhook" style="text;html=1;align=center;verticalAlign=middle;resizable=0;points=[];autosize=1;strokeColor=none;fillColor=none;fontSize=12;" vertex="1" parent="1">
          <mxGeometry x="-373.05000000000007" y="7.105427357601002e-15" width="150" height="30" as="geometry" />
        </mxCell>
        <mxCell id="r4pAyAyqcV2ajWgkFm0Q-167" style="edgeStyle=orthogonalEdgeStyle;rounded=0;orthogonalLoop=1;jettySize=auto;html=1;" edge="1" parent="1" source="r4pAyAyqcV2ajWgkFm0Q-154" target="r4pAyAyqcV2ajWgkFm0Q-157">
          <mxGeometry relative="1" as="geometry" />
        </mxCell>
        <mxCell id="r4pAyAyqcV2ajWgkFm0Q-154" value="" style="points=[];aspect=fixed;html=1;align=center;shadow=0;dashed=0;fillColor=#FF6A00;strokeColor=none;shape=mxgraph.alibaba_cloud.apigateway;" vertex="1" parent="1">
          <mxGeometry x="-153.85" y="-56.270000000000024" width="52.68" height="50.85" as="geometry" />
        </mxCell>
        <mxCell id="r4pAyAyqcV2ajWgkFm0Q-156" value="github events api-gateway" style="text;html=1;align=center;verticalAlign=middle;resizable=0;points=[];autosize=1;strokeColor=none;fillColor=none;fontSize=12;" vertex="1" parent="1">
          <mxGeometry x="-205.07999999999998" y="1.7763568394002505e-15" width="160" height="30" as="geometry" />
        </mxCell>
        <mxCell id="r4pAyAyqcV2ajWgkFm0Q-157" value="firehose" style="sketch=0;points=[[0,0,0],[0.25,0,0],[0.5,0,0],[0.75,0,0],[1,0,0],[0,1,0],[0.25,1,0],[0.5,1,0],[0.75,1,0],[1,1,0],[0,0.25,0],[0,0.5,0],[0,0.75,0],[1,0.25,0],[1,0.5,0],[1,0.75,0]];outlineConnect=0;fontColor=#232F3E;fillColor=#8C4FFF;strokeColor=#ffffff;dashed=0;verticalLabelPosition=bottom;verticalAlign=top;align=center;html=1;fontSize=12;fontStyle=0;aspect=fixed;shape=mxgraph.aws4.resourceIcon;resIcon=mxgraph.aws4.kinesis;" vertex="1" parent="1">
          <mxGeometry x="-10" y="-60" width="59.15" height="59.15" as="geometry" />
        </mxCell>
        <mxCell id="r4pAyAyqcV2ajWgkFm0Q-164" value="&lt;div&gt;&lt;br&gt;&lt;/div&gt;&lt;div&gt;&lt;br&gt;&lt;/div&gt;&lt;div&gt;&lt;br&gt;&lt;/div&gt;&lt;div&gt;&lt;br&gt;&lt;/div&gt;&lt;div&gt;&lt;br&gt;&lt;/div&gt;&lt;div&gt;&lt;br&gt;&lt;/div&gt;" style="sketch=0;outlineConnect=0;strokeColor=#82b366;fillColor=#d5e8d4;dashed=0;verticalLabelPosition=middle;verticalAlign=bottom;align=center;html=1;whiteSpace=wrap;fontSize=10;fontStyle=1;spacing=3;shape=mxgraph.aws4.productIcon;prIcon=mxgraph.aws4.s3;" vertex="1" parent="1">
          <mxGeometry x="100" y="-65.42" width="70" height="60" as="geometry" />
        </mxCell>
        <mxCell id="r4pAyAyqcV2ajWgkFm0Q-168" value="git-events-raw" style="text;html=1;align=center;verticalAlign=middle;resizable=0;points=[];autosize=1;strokeColor=none;fillColor=none;fontSize=13;" vertex="1" parent="1">
          <mxGeometry x="80" width="110" height="30" as="geometry" />
        </mxCell>
        <mxCell id="r4pAyAyqcV2ajWgkFm0Q-171" style="edgeStyle=orthogonalEdgeStyle;rounded=0;orthogonalLoop=1;jettySize=auto;html=1;" edge="1" parent="1" source="r4pAyAyqcV2ajWgkFm0Q-169">
          <mxGeometry relative="1" as="geometry">
            <mxPoint x="135" y="-70" as="targetPoint" />
          </mxGeometry>
        </mxCell>
        <mxCell id="r4pAyAyqcV2ajWgkFm0Q-172" value="query results" style="edgeLabel;html=1;align=center;verticalAlign=middle;resizable=0;points=[];" vertex="1" connectable="0" parent="r4pAyAyqcV2ajWgkFm0Q-171">
          <mxGeometry x="-0.2001" y="1" relative="1" as="geometry">
            <mxPoint as="offset" />
          </mxGeometry>
        </mxCell>
        <mxCell id="r4pAyAyqcV2ajWgkFm0Q-169" value="athena" style="sketch=0;points=[[0,0,0],[0.25,0,0],[0.5,0,0],[0.75,0,0],[1,0,0],[0,1,0],[0.25,1,0],[0.5,1,0],[0.75,1,0],[1,1,0],[0,0.25,0],[0,0.5,0],[0,0.75,0],[1,0.25,0],[1,0.5,0],[1,0.75,0]];outlineConnect=0;fontColor=#232F3E;fillColor=#8C4FFF;strokeColor=#ffffff;dashed=0;verticalLabelPosition=bottom;verticalAlign=top;align=center;html=1;fontSize=12;fontStyle=0;aspect=fixed;shape=mxgraph.aws4.resourceIcon;resIcon=mxgraph.aws4.athena;" vertex="1" parent="1">
          <mxGeometry x="-180" y="-210" width="70" height="70" as="geometry" />
        </mxCell>
        <mxCell id="r4pAyAyqcV2ajWgkFm0Q-173" value="cloudwatch" style="sketch=0;points=[[0,0,0],[0.25,0,0],[0.5,0,0],[0.75,0,0],[1,0,0],[0,1,0],[0.25,1,0],[0.5,1,0],[0.75,1,0],[1,1,0],[0,0.25,0],[0,0.5,0],[0,0.75,0],[1,0.25,0],[1,0.5,0],[1,0.75,0]];points=[[0,0,0],[0.25,0,0],[0.5,0,0],[0.75,0,0],[1,0,0],[0,1,0],[0.25,1,0],[0.5,1,0],[0.75,1,0],[1,1,0],[0,0.25,0],[0,0.5,0],[0,0.75,0],[1,0.25,0],[1,0.5,0],[1,0.75,0]];outlineConnect=0;fontColor=#232F3E;fillColor=#E7157B;strokeColor=#ffffff;dashed=0;verticalLabelPosition=bottom;verticalAlign=top;align=center;html=1;fontSize=12;fontStyle=0;aspect=fixed;shape=mxgraph.aws4.resourceIcon;resIcon=mxgraph.aws4.cloudwatch_2;" vertex="1" parent="1">
          <mxGeometry x="-293.05" y="-210" width="70" height="70" as="geometry" />
        </mxCell>
        <mxCell id="r4pAyAyqcV2ajWgkFm0Q-175" style="edgeStyle=orthogonalEdgeStyle;rounded=0;orthogonalLoop=1;jettySize=auto;html=1;entryX=0.5;entryY=0;entryDx=0;entryDy=0;entryPerimeter=0;" edge="1" parent="1" source="r4pAyAyqcV2ajWgkFm0Q-149" target="r4pAyAyqcV2ajWgkFm0Q-173">
          <mxGeometry relative="1" as="geometry">
            <Array as="points">
              <mxPoint x="-270" y="-314" />
              <mxPoint x="-270" y="-210" />
            </Array>
          </mxGeometry>
        </mxCell>
        <mxCell id="r4pAyAyqcV2ajWgkFm0Q-176" value="&lt;div&gt;collect app metrics&lt;/div&gt;" style="edgeLabel;html=1;align=center;verticalAlign=middle;resizable=0;points=[];" vertex="1" connectable="0" parent="r4pAyAyqcV2ajWgkFm0Q-175">
          <mxGeometry x="0.1149" y="1" relative="1" as="geometry">
            <mxPoint x="-3" y="12" as="offset" />
          </mxGeometry>
        </mxCell>
      </root>
    </mxGraphModel>
  </diagram>
</mxfile>
